G04 PROTEUS GERBER X2 FILE*
%TF.GenerationSoftware,Labcenter,Proteus,8.16-SP3-Build36097*%
%TF.CreationDate,2024-05-06T12:20:01+00:00*%
%TF.FileFunction,Copper,L2,Bot*%
%TF.FilePolarity,Positive*%
%TF.Part,Single*%
%TF.SameCoordinates,{807a0646-054e-4b8c-a3a0-1762012dc6c7}*%
%FSLAX45Y45*%
%MOMM*%
G01*
%TA.AperFunction,Conductor*%
%ADD10C,1.016000*%
%ADD11C,0.254000*%
%TA.AperFunction,ViaPad*%
%ADD14C,0.762000*%
%TA.AperFunction,ComponentPad*%
%ADD15C,1.778000*%
%TA.AperFunction,ComponentPad*%
%ADD16R,1.270000X1.270000*%
%ADD17C,1.270000*%
%AMDIL008*
4,1,8,
-0.762000,0.965200,-0.457200,1.270000,0.457200,1.270000,0.762000,0.965200,0.762000,-0.965200,
0.457200,-1.270000,-0.457200,-1.270000,-0.762000,-0.965200,-0.762000,0.965200,
0*%
%TA.AperFunction,ComponentPad*%
%ADD18DIL008*%
%TA.AperFunction,ComponentPad*%
%ADD19C,3.810000*%
%TA.AperFunction,ComponentPad*%
%ADD70C,2.032000*%
%TA.AperFunction,ComponentPad*%
%ADD71R,2.032000X2.032000*%
%TA.AperFunction,OtherPad,Unknown*%
%ADD20C,1.778000*%
%TA.AperFunction,Profile*%
%ADD21C,0.101600*%
%TD.AperFunction*%
D10*
X+3628000Y-3200400D02*
X+3628000Y-4410400D01*
X+3080000Y-4958400D01*
X-6000000Y-4810400D02*
X-6502400Y-4810400D01*
X-6705600Y-4607200D01*
X-6705600Y-3860800D01*
X+500000Y-4810400D02*
X+641350Y-4810400D01*
X+711200Y-4740550D01*
X+711200Y-3251200D01*
X+580000Y-3120000D01*
X+580000Y-1930400D01*
X-1452000Y+101600D02*
X-1452000Y-101600D01*
X-1248800Y-304800D01*
X-436000Y-304800D01*
X-436000Y-660400D01*
X-1960000Y+101600D02*
X-1960000Y-38100D01*
X-2023500Y-101600D01*
X-2518800Y-101600D01*
X-2722000Y+101600D01*
X+4876800Y-4673600D02*
X+4876800Y-4978400D01*
X+4390000Y-4978400D01*
X+5152000Y-3200400D02*
X+4775200Y-3577200D01*
X+4775200Y-4572000D01*
X+4876800Y-4673600D01*
X+5964800Y-4673600D01*
X+6168000Y-4470400D01*
X+2235200Y-1727200D02*
X+2032000Y-1930400D01*
X+1850000Y-1930400D01*
X-7540000Y-2216400D02*
X-7823200Y-2216400D01*
X-7823200Y-3251200D01*
X-7586000Y-3488400D01*
X-7586000Y-3870400D01*
X-2743200Y-406400D02*
X-2468000Y-406400D01*
X-2468000Y-660400D01*
X-2976000Y-660400D02*
X-2976000Y-406400D01*
X-2743200Y-406400D01*
X+3628000Y-3200400D02*
X+3628000Y-2163200D01*
X+3657600Y-2133600D01*
X-6705600Y-3860800D02*
X-6532000Y-3687200D01*
X-6532000Y-3454400D01*
X-436000Y-660400D02*
X-436000Y-914400D01*
X+72000Y-914400D01*
X+72000Y-660400D01*
X+326000Y-914400D01*
X+2032000Y-914400D01*
X+2235200Y-1117600D01*
X+2235200Y-1727200D01*
X+5152000Y-711200D02*
X+5101200Y-660400D01*
X+4898000Y-660400D01*
X-7586000Y-3870400D02*
X-7010400Y-3870400D01*
X-7000800Y-3860800D01*
X-6705600Y-3860800D01*
X-2722000Y+101600D02*
X-2722000Y-385200D01*
X-2743200Y-406400D01*
X-500000Y-4810400D02*
X-1500000Y-4810400D01*
X-5516000Y+101600D02*
X-5262000Y+101600D01*
X-2976000Y-660400D02*
X-3230000Y-660400D01*
X+2612000Y-1930400D02*
X+2235200Y-1930400D01*
X+2235200Y-1727200D01*
X-7540000Y-2216400D02*
X-7093200Y-2216400D01*
X-7086600Y-2209800D01*
X-1981200Y-1295400D02*
X-1905000Y-1219200D01*
X-1422400Y-1219200D01*
X-1219200Y-1016000D01*
X-1219200Y-488950D01*
X-1422400Y-488950D01*
X-1706000Y-205350D01*
X-1706000Y+101600D01*
X-6604000Y-1016000D02*
X-6121400Y-1016000D01*
X-6096000Y-990600D01*
X-6604000Y-1016000D02*
X-6532000Y-944000D01*
X-6532000Y-660400D01*
X+2438400Y+3429000D02*
X+2438400Y+6908800D01*
X+2235200Y+7112000D01*
X-7416800Y+7112000D01*
X-7620000Y+6908800D01*
X-7620000Y-812800D01*
X-7416800Y-1016000D01*
X-6604000Y-1016000D01*
X+1219200Y+4775200D02*
X+1219200Y+6096000D01*
X-1981200Y-3657600D02*
X-1981200Y-5486400D01*
X-4648200Y-3657600D02*
X-4648200Y-1524000D01*
X+1219200Y+4775200D02*
X+1219200Y+4572000D01*
X+1320800Y+4470400D01*
X+1320800Y+3759200D01*
X+1117600Y+3556000D01*
X-283600Y+3556000D01*
X-690000Y+3149600D01*
X-1219200Y-1600200D02*
X-1267241Y-1648241D01*
X-1267241Y-2946400D01*
X-1320800Y-2999959D01*
X-1320800Y-3632200D01*
X-1295400Y-3657600D01*
X-5791200Y+3048000D02*
X-5791200Y+6705600D01*
X-5588000Y+6908800D01*
X+1320800Y+6908800D01*
X+1524000Y+6705600D01*
X+1524000Y+3556000D01*
X+1320800Y+3352800D01*
X-232800Y+3352800D01*
X-436000Y+3149600D01*
X-5770000Y-660400D02*
X-5312800Y-203200D01*
X-5283200Y-203200D01*
X-4876800Y+203200D01*
X-4876800Y+3048000D01*
X-6299200Y-1422400D02*
X-5791200Y-1422400D01*
X-5516000Y-1147200D01*
X-5516000Y-660400D01*
X-6299200Y-1422400D02*
X-7823200Y-1422400D01*
X-8026400Y-1219200D01*
X-8026400Y+5842000D01*
X-8001000Y+5867400D01*
X-2976000Y+5689600D02*
X-2976000Y+5829300D01*
X-3039500Y+5892800D01*
X-3860800Y+5892800D01*
X-3886200Y+5867400D01*
X+1752600Y+5410200D02*
X+1752600Y+3352800D01*
X-3505200Y-1524000D02*
X-3505200Y-427600D01*
X-2976000Y+101600D01*
X-6299200Y-1422400D02*
X-6299200Y-1651000D01*
X-6324600Y-1676400D01*
X-7239000Y-152400D02*
X-6532000Y-152400D01*
X-6024000Y-660400D01*
X-6781800Y+304800D02*
X-6786000Y+309000D01*
X-6786000Y+609600D01*
X-7391400Y+1600200D02*
X-7416800Y+1574800D01*
X-7416800Y-406400D01*
X-6532000Y-406400D01*
X-6278000Y-660400D01*
X+1596000Y-4470400D02*
X+1320800Y-4195200D01*
X+1320800Y-3657600D01*
X+1625600Y-3352800D01*
X+1625600Y-3251200D01*
X+1625600Y-2946400D02*
X+1625600Y-3251200D01*
X+2104000Y-4470400D02*
X+2104000Y-4368800D01*
X+2002400Y-4267200D01*
X+1697600Y-4267200D01*
X+1596000Y-4368800D01*
X+1596000Y-4470400D01*
X+6400800Y-609600D02*
X+6299200Y-711200D01*
X+6299200Y-4013200D01*
X+6324600Y-4038600D01*
X+4390000Y+1879600D02*
X+5384800Y+1879600D01*
X+5660000Y+1604400D01*
X+5660000Y+609600D01*
X+6197600Y+609600D01*
X+6400800Y+406400D01*
X+6400800Y-609600D01*
X+326000Y+3149600D02*
X+326000Y+2641600D01*
X+406400Y+2561200D01*
X+406400Y+2438400D01*
X-2500000Y-1810400D02*
X-2722000Y-1588400D01*
X-2722000Y-660400D01*
X+1828800Y-2844800D02*
X+2256400Y-2844800D01*
X+2612000Y-3200400D01*
X-182000Y+2133600D02*
X-182000Y+1646800D01*
X-508000Y+1320800D01*
X+1524000Y-1930400D02*
X+1524000Y-1494400D01*
X+1850000Y-1168400D01*
X+1850000Y-2438400D02*
X+1850000Y-2641600D01*
X+1828800Y-2662800D01*
X+1828800Y-2844800D01*
X+1625600Y-2946400D02*
X+1727200Y-2946400D01*
X+1828800Y-2844800D01*
X+1850000Y-2438400D02*
X+1524000Y-2112400D01*
X+1524000Y-1930400D01*
X+1524000Y-3251200D02*
X+1625600Y-3251200D01*
X-534482Y-1828882D02*
X-534482Y-2133600D01*
X-245500Y-2133600D01*
X-182000Y-2070100D01*
X-182000Y-1930400D01*
X+6400800Y-609600D02*
X+6502400Y-609600D01*
X+6553200Y-660400D01*
X+6930000Y-660400D01*
X-182000Y-1930400D02*
X+203200Y-1930400D01*
X+203200Y-3251200D01*
X+228600Y-3276600D01*
X+1524000Y-3251200D02*
X+1485900Y-3251200D01*
X+1460500Y-3276600D01*
X+1447800Y-3276600D01*
X-2976000Y+609600D02*
X-2976000Y+2133600D01*
X+1850000Y+1879600D02*
X+580000Y+1879600D01*
X-182000Y+2133600D02*
X+122800Y+2438400D01*
X+406400Y+2438400D01*
X+580000Y+1879600D02*
X+580000Y+2264800D01*
X+406400Y+2438400D01*
X-2214000Y+609600D02*
X-1909200Y+914400D01*
X-1422400Y+914400D01*
X-508000Y+1320800D02*
X-609600Y+1422400D01*
X-1219200Y+1422400D01*
X-1422400Y+1219200D01*
X-1422400Y+914400D01*
X-1198000Y+914400D01*
X-1198000Y+609600D01*
X+1524000Y-1930400D02*
X+1088000Y-1930400D01*
X-1960000Y+2133600D02*
X-1706000Y+2133600D01*
X-2214000Y+2133600D02*
X-2468000Y+2133600D01*
X-2976000Y+2133600D02*
X-3230000Y+2133600D01*
X-1960000Y+2133600D02*
X-2214000Y+2133600D01*
X-2722000Y+609600D02*
X-2468000Y+609600D01*
X-2468000Y+304800D01*
X-2214000Y+304800D01*
X-2214000Y+609600D01*
X-2976000Y+609600D02*
X-2722000Y+609600D01*
X+72000Y+3149600D02*
X+326000Y+3149600D01*
X-2976000Y+609600D02*
X-3230000Y+609600D01*
X-508000Y+1320800D02*
X-508000Y+914400D01*
X-436000Y+842400D01*
X-436000Y+609600D01*
X-2468000Y+2133600D02*
X-2468000Y+2273300D01*
X-2531500Y+2336800D01*
X-2912500Y+2336800D01*
X-2976000Y+2273300D01*
X-2976000Y+2133600D01*
X-6532000Y+101600D02*
X-6328800Y+304800D01*
X-5283200Y+304800D01*
X-5080000Y+508000D01*
X-5080000Y+5181600D01*
X-4876800Y+5384800D01*
X-3026800Y+5384800D01*
X-2722000Y+5689600D01*
X-5486400Y+3886200D02*
X-5486400Y+5994400D01*
X-5207000Y+6273800D01*
X-1117600Y+6273800D01*
X-914400Y+6070600D01*
X-914400Y+3733800D01*
X-105800Y+3733800D01*
X+72000Y+3911600D01*
X-4648200Y+3886200D02*
X-4673600Y+3860800D01*
X-4673600Y+275200D01*
X-4500000Y+101600D01*
X-4419600Y+4876800D02*
X-4470400Y+4826000D01*
X-4470400Y+1244600D01*
X-4495800Y+1219200D01*
X+76200Y+6324600D02*
X+580000Y+5820800D01*
X+580000Y+3911600D01*
X-4038600Y+1828800D02*
X-4064000Y+1803400D01*
X-4064000Y+681600D01*
X-3738000Y+355600D01*
X-6781800Y-2362200D02*
X-6890000Y-2470400D01*
X-7540000Y-2470400D01*
X-2209800Y-2362200D02*
X-2235200Y-2336800D01*
X-2235200Y-681600D01*
X-2214000Y-660400D01*
X-1960000Y+609600D02*
X-1706000Y+609600D01*
X-1452000Y+609600D02*
X-1147200Y+304800D01*
X-639200Y+304800D01*
X-436000Y+101600D01*
X+2743200Y+1143000D02*
X+2743200Y+711200D01*
X+3048000Y+406400D01*
X+3048000Y-1371600D01*
X-914400Y+1066800D02*
X-944000Y+1037200D01*
X-944000Y+609600D01*
X-3429000Y+1828800D02*
X-3454400Y+1854200D01*
X-3454400Y+3352800D01*
X-3026800Y+3352800D01*
X-2468000Y+3911600D01*
X+72000Y+609600D02*
X+326000Y+355600D01*
X+326000Y+101600D01*
X+76200Y+914400D02*
X+72000Y+918600D01*
X+72000Y+2133600D01*
X+304800Y+1752600D02*
X+304800Y+1422400D01*
X+834000Y+893200D01*
X+834000Y+101600D01*
X-457200Y+1752600D02*
X-436000Y+1773800D01*
X-436000Y+2133600D01*
X+609600Y+2971800D02*
X+2209800Y+2971800D01*
X-685800Y+2971800D02*
X-690000Y+2967600D01*
X-690000Y+2133600D01*
X-944000Y+2133600D02*
X-944000Y+3149600D01*
X-1147200Y+3352800D01*
X-1655200Y+3352800D01*
X-2214000Y+3911600D01*
X+4495800Y+1524000D02*
X+4673600Y+1524000D01*
X+4876800Y+1320800D01*
X+4876800Y+101600D01*
X+5080000Y-101600D01*
X+5689600Y-101600D01*
X+5892800Y-304800D01*
X+5892800Y-4089400D01*
X+5867400Y-4114800D01*
X+2743200Y+2362200D02*
X+2743200Y+1524000D01*
X+838200Y+2133600D02*
X+1219200Y+2133600D01*
X-914400Y+1752600D02*
X-939800Y+1727200D01*
X-2315600Y+1727200D01*
X-2722000Y+2133600D01*
X-3250000Y-4560400D02*
X-2743200Y-4560400D01*
X-2500000Y-4317200D01*
X-2500000Y-2826400D01*
X-1219200Y+5638800D02*
X-1219200Y+5486400D01*
X-1320800Y+5384800D01*
X-1320800Y+4267200D01*
X-1452000Y+4136000D01*
X-1452000Y+3911600D01*
X-4000000Y-4560400D02*
X-4267200Y-4827600D01*
X-4267200Y-5689600D01*
X-4064000Y-5892800D01*
X+7010400Y-5892800D01*
X+7239000Y-5664200D01*
X+7239000Y+5181600D01*
X-1143000Y+5181600D02*
X-1117600Y+5156200D01*
X-1117600Y+3759200D01*
X-1320800Y+3556000D01*
X-1604400Y+3556000D01*
X-1960000Y+3911600D01*
X-3000000Y-2826400D02*
X-3000000Y-3560400D01*
X-4000000Y-4560400D01*
X-3733800Y+4191000D02*
X-3001400Y+4191000D01*
X-2722000Y+3911600D01*
X-5000000Y-4560400D02*
X-5722800Y-5283200D01*
X-8229600Y-5283200D01*
X-8432800Y-5080000D01*
X-8432800Y+4013200D01*
X-8458200Y+4038600D01*
D11*
X-5000000Y-4560400D02*
X-4350659Y-3911059D01*
X-3808259Y-3911059D01*
X-3250000Y-3352800D01*
X-3250000Y-2826400D01*
X-3500000Y-2826400D01*
D10*
X-3276600Y+2438400D02*
X-3230000Y+2485000D01*
X-3230000Y+3149600D01*
X-7848600Y+838200D02*
X-7848600Y+2819400D01*
X-5257800Y-2971800D02*
X-5257800Y-3657600D01*
X-5588000Y-3987800D01*
X-5588000Y-4148400D01*
X-6000000Y-4560400D01*
X-5257800Y-2743200D02*
X-5257800Y-2971800D01*
X+1828800Y+2743200D02*
X+2336800Y+2743200D01*
X+2336800Y-203200D01*
X+2057400Y-482600D01*
X+1011800Y-482600D01*
X+834000Y-660400D01*
X-2057400Y+2971800D02*
X-2032000Y+2946400D01*
X-2032000Y+2743200D01*
X-2235200Y+2540000D01*
X-2976000Y+2540000D01*
X-2976000Y+3149600D01*
X+990600Y+1676400D02*
X+1320800Y+1346200D01*
X+1320800Y+80400D01*
X+580000Y-660400D01*
X-1219200Y+2743200D02*
X-1219200Y+2362200D01*
X-2286000Y+2743200D02*
X-2722000Y+2743200D01*
X-2722000Y+3149600D01*
X+3657600Y+0D02*
X+3657600Y-533400D01*
X+2133600Y+2514600D02*
X+2133600Y+0D01*
X-8458200Y+4267200D02*
X-8597900Y+4267200D01*
X-8636000Y+4229100D01*
X-8636000Y-3632200D01*
X-8610600Y-3657600D01*
X-3352800Y+3657600D02*
X-3454400Y+3556000D01*
X-3860800Y+3556000D01*
X-4064000Y+3759200D01*
X-4064000Y+4241800D01*
X-4038600Y+4267200D01*
X+101600Y-4572000D02*
X-304800Y-4165600D01*
X-304800Y-3074564D01*
X-534482Y-2844882D01*
X+101600Y-4572000D02*
X+101600Y-4368800D01*
X+430150Y-4368800D01*
X+500000Y-4438650D01*
X+500000Y-4560400D01*
X+1066800Y+533400D02*
X+1088000Y+512200D01*
X+1088000Y+101600D01*
X+101600Y-4572000D02*
X+101600Y-5283200D01*
X+304800Y-5486400D01*
X+6197600Y-5486400D01*
X+6400800Y-5283200D01*
X+6400800Y-4368800D01*
X+6096000Y-4064000D01*
X+6096000Y-101600D01*
X+5892800Y+101600D01*
X+5435600Y+101600D01*
X+5410200Y+76200D01*
X-1034482Y-2844882D02*
X-1034482Y-4025918D01*
X-500000Y-4560400D01*
X-914400Y-76200D02*
X+402200Y-76200D01*
X+580000Y+101600D01*
X-1034482Y-2844882D02*
X-812800Y-2623200D01*
X-812800Y-1625600D01*
X-838200Y-1600200D01*
X+5410200Y-457200D02*
X+5029200Y-457200D01*
X+4876800Y-304800D01*
X-1500000Y-4560400D02*
X-1727200Y-4560400D01*
X-1727200Y-5486400D01*
X-1524000Y-5689600D01*
X+6400800Y-5689600D01*
X+6629400Y-5461000D01*
X+6629400Y-838200D01*
D11*
X-1500000Y-4560400D02*
X-1250000Y-4560400D01*
X-1500000Y-4310400D01*
X-1500000Y-2826400D01*
D10*
X-2743200Y-3276600D02*
X-2743200Y-4114800D01*
X-2209800Y-4114800D02*
X-2250000Y-4155000D01*
X-2250000Y-4560400D01*
X-2743200Y-3276600D02*
X-2743200Y-3048000D01*
X-2743200Y-2743200D01*
X-2540000Y-2540000D01*
X-1930400Y-2540000D01*
X-1727200Y-2336800D01*
X-1727200Y-1625600D01*
X-1524000Y-1422400D01*
X-914400Y-1422400D01*
X-690000Y-1198000D01*
X-690000Y-660400D01*
X-2000000Y-2826400D02*
X-2250000Y-3076400D01*
X-2250000Y-3276600D01*
D11*
X-2000000Y-2826400D02*
X-1655200Y-2826400D01*
D10*
X+5660000Y-1930400D02*
X+4902200Y-1930400D01*
X+4876800Y-1905000D01*
X+1143000Y-2362200D02*
X+1143000Y-4470400D01*
X+1346200Y-4673600D01*
X+2336800Y-4673600D01*
X+2540000Y-4470400D01*
X+2540000Y-4267200D01*
X+2844800Y-3962400D01*
X+2844800Y-2997200D01*
X+2819400Y-2971800D01*
X+1295400Y-1676400D02*
X+1088000Y-1676400D01*
X+5660000Y-1930400D02*
X+5660000Y-406400D01*
X+5486400Y-5029200D02*
X+5232400Y-5283200D01*
X+1117600Y-5283200D01*
X+914400Y-5080000D01*
X+914400Y-2844800D01*
X+812800Y-2743200D01*
X+812800Y-1443600D01*
X+1088000Y-1168400D01*
X+2844800Y-2133600D02*
X+3120000Y-2408800D01*
X+3120000Y-3200400D01*
X+2819400Y+304800D02*
X+2844800Y+279400D01*
X+2844800Y-2133600D01*
X+2358000Y-2438400D02*
X+2662800Y-2133600D01*
X+2844800Y-2133600D01*
X+2358000Y-2438400D02*
X+2104000Y-2438400D01*
X+3886200Y-3429000D02*
X+3886200Y-3966600D01*
X+4390000Y-4470400D01*
X+2133600Y-3429000D02*
X+2104000Y-3399400D01*
X+2104000Y-3200400D01*
X+3886200Y+685800D02*
X+3860800Y+660400D01*
X+3860800Y-3149600D01*
X+4064000Y-3352800D01*
X+4064000Y-3390900D01*
X+4025900Y-3429000D01*
X+3886200Y-3429000D01*
X+4495800Y-2438400D02*
X+4495800Y-2451100D01*
X+4470400Y-2476500D01*
X+4470400Y-2743200D01*
X+5202800Y-2743200D01*
X+5660000Y-3200400D01*
X+4165600Y+1422400D02*
X+4165600Y+2438400D01*
X+4422598Y+2695398D01*
X+5205798Y+2695398D01*
X+5660000Y+3149600D01*
X+4165600Y+1422400D02*
X+3352800Y+1422400D01*
X+3120000Y+1189600D01*
X+3120000Y+863600D01*
X-182000Y-1422400D02*
X-182000Y-1676400D01*
X+0Y-3657600D02*
X+0Y-2133600D01*
X+2057400Y-3657600D02*
X+1676400Y-3657600D01*
X+4165600Y+1422400D02*
X+4673600Y+914400D01*
X+4673600Y-914400D01*
X+4267200Y-1320800D01*
X+4267200Y-3657600D01*
X+3352800Y-711200D02*
X+3352800Y+609600D01*
X+3606800Y+863600D01*
X+4390000Y+863600D01*
X+3352800Y-711200D02*
X+3556000Y-914400D01*
X+3556000Y-1625600D01*
X+3352800Y-1828800D01*
X+3352800Y-3860800D01*
X+3080000Y-4133600D01*
X+3080000Y-4450400D01*
X+3352800Y-914400D02*
X+3352800Y-711200D01*
X+381000Y-2743200D02*
X+381000Y-1731400D01*
X-182000Y-1168400D01*
X+4038600Y-2743200D02*
X+4038600Y-1011800D01*
X+4390000Y-660400D01*
X-4500000Y-152400D02*
X-4673600Y-152400D01*
X-5080000Y-558800D01*
X-5080000Y-1422400D01*
X-5283200Y-1625600D01*
X-6024000Y-1625600D01*
X-6024000Y-1930400D01*
X-5770000Y-1930400D02*
X-5080000Y-1930400D01*
X-4876800Y-1727200D01*
X-4876800Y-1037200D01*
X-4500000Y-660400D01*
X-7010400Y-3352800D02*
X-7010400Y-3149600D01*
X-6278000Y-2417200D01*
X-6278000Y-1930400D01*
X-4267200Y+2057400D02*
X-4267200Y+630800D01*
X-3738000Y+101600D01*
X-4267200Y-3352800D02*
X-4267200Y-935600D01*
X-3738000Y-406400D01*
X-3810000Y-2133600D02*
X-3759200Y-2082800D01*
X-3759200Y-1422400D01*
X-3738000Y-1401200D01*
X-3738000Y-914400D01*
X-5486400Y-2133600D02*
X-5486400Y-3454400D01*
X-5770000Y-3454400D01*
X-4267200Y+3352800D02*
X-4267200Y+4648200D01*
X-8229600Y+3352800D02*
X-8229600Y-1422400D01*
X-8026400Y-1625600D01*
X-6532000Y-1625600D01*
X-6532000Y-1930400D01*
X-8229600Y-4114800D02*
X-8229600Y-2133600D01*
X-8026400Y-1930400D01*
X-6786000Y-1930400D01*
X-8458200Y+4572000D02*
X-8636000Y+4572000D01*
X-8839200Y+4368800D01*
X-8839200Y-4114800D01*
X-3429000Y+4419600D02*
X-3429000Y+4432300D01*
X-3454400Y+4457700D01*
X-3454400Y+4673600D01*
X-2214000Y+4673600D01*
X-1960000Y+4419600D01*
X-5283200Y+1828800D02*
X-5283200Y+842400D01*
X-5516000Y+609600D01*
X-5384800Y+2336800D02*
X-5283200Y+2235200D01*
X-5283200Y+1828800D01*
X-1727200Y+6096000D02*
X-5080000Y+6096000D01*
X-5283200Y+5892800D01*
X-5283200Y+2438400D01*
X-5384800Y+2336800D01*
X+2032000Y+3251200D02*
X+2336800Y+3251200D01*
X+2540000Y+3048000D01*
X+2540000Y-406400D01*
X+2286000Y-660400D01*
X+1088000Y-660400D01*
X-5384800Y+1828800D02*
X-5283200Y+1828800D01*
X+2032000Y+3251200D02*
X+2032000Y+5842000D01*
X+2057400Y+5867400D01*
X-1706000Y+5689600D02*
X-1727200Y+5710800D01*
X-1727200Y+6096000D01*
X-5384800Y+1828800D02*
X-5452500Y+1828800D01*
X-5503300Y+1879600D01*
X-5516000Y+1879600D01*
X-4500000Y-914400D02*
X-4470400Y-944000D01*
X-4470400Y-3556000D01*
X-3962400Y-3556000D01*
X-3759200Y-3352800D01*
X-3759200Y-2540000D01*
X-3251200Y-2032000D01*
X-3251200Y-939800D01*
X-3276600Y-914400D01*
X-5384800Y+2336800D02*
X-5511800Y+2336800D01*
X-5562600Y+2286000D01*
X-3886200Y+1447800D02*
X-3860800Y+1473200D01*
X-3860800Y+2336800D01*
X-4229100Y+2336800D01*
X-4267200Y+2298700D01*
X-4267200Y+2286000D01*
X-3276600Y+838200D02*
X-3276600Y+1447800D01*
X+1088000Y+3149600D02*
X+1930400Y+3149600D01*
X+2032000Y+3251200D01*
X-3230000Y+6451600D02*
X-2976000Y+6705600D01*
X-914400Y+6705600D01*
X-690000Y+6481200D01*
X-690000Y+3911600D01*
X-3230000Y+101600D02*
X-3556000Y+427600D01*
X-3556000Y+546100D01*
X-3619500Y+609600D01*
X-3738000Y+609600D01*
X-3733800Y+3886200D02*
X-3255400Y+3886200D01*
X-3230000Y+3911600D01*
X-690000Y+101600D02*
X-1193800Y+101600D01*
X-1219200Y+76200D01*
X-7040000Y+1371600D02*
X-7213600Y+1545200D01*
X-7213600Y+2468000D01*
X-7040000Y+2641600D01*
X-7040000Y+1371600D02*
X-7040000Y+914400D01*
X-7213600Y+740800D01*
X-7213600Y+275200D01*
X-7040000Y+101600D01*
X-3429000Y+5181600D02*
X-3230000Y+5181600D01*
X-7040000Y+2641600D02*
X-7040000Y+3306200D01*
X-7315200Y+3581400D01*
X-3657600Y+2844800D02*
X-3962400Y+3149600D01*
X-3962400Y+3352800D01*
X-3738000Y+609600D02*
X-3738000Y+812800D01*
X-3657600Y+893200D01*
X-3657600Y+2844800D01*
X-1706000Y+5689600D02*
X-1524000Y+5689600D01*
X-1524000Y+4601600D01*
X-1706000Y+4419600D01*
D14*
X+3657600Y-2133600D03*
X-7086600Y-2209800D03*
X+5152000Y-711200D03*
X-1981200Y-1295400D03*
X-6096000Y-990600D03*
X+2438400Y+3429000D03*
X-1981200Y-5486400D03*
X-4648200Y-1524000D03*
X-4648200Y-3657600D03*
X+1219200Y+6096000D03*
X-1295400Y-3657600D03*
X-1219200Y-1600200D03*
X-1981200Y-3657600D03*
X+1219200Y+4775200D03*
X-5791200Y+3048000D03*
X-4876800Y+3048000D03*
X-8001000Y+5867400D03*
X-3886200Y+5867400D03*
X+1752600Y+3352800D03*
X+1752600Y+5410200D03*
X-3505200Y-1524000D03*
X-6324600Y-1676400D03*
X-7239000Y-152400D03*
X-6781800Y+304800D03*
X-7391400Y+1600200D03*
X+6324600Y-4038600D03*
X+228600Y-3276600D03*
X+1447800Y-3276600D03*
X-5486400Y+3886200D03*
X-4648200Y+3886200D03*
X-4495800Y+1219200D03*
X-4419600Y+4876800D03*
X+76200Y+6324600D03*
X-4038600Y+1828800D03*
X-6781800Y-2362200D03*
X-2209800Y-2362200D03*
X+3048000Y-1371600D03*
X+2743200Y+1143000D03*
X-914400Y+1066800D03*
X-3429000Y+1828800D03*
X+76200Y+914400D03*
X+304800Y+1752600D03*
X-457200Y+1752600D03*
X+2209800Y+2971800D03*
X+609600Y+2971800D03*
X-685800Y+2971800D03*
X+5867400Y-4114800D03*
X+4495800Y+1524000D03*
X+2743200Y+1524000D03*
X+2743200Y+2362200D03*
X+1219200Y+2133600D03*
X+838200Y+2133600D03*
X-914400Y+1752600D03*
X-1219200Y+5638800D03*
X+7239000Y+5181600D03*
X-1143000Y+5181600D03*
X-3733800Y+4191000D03*
X-8458200Y+4038600D03*
X-3276600Y+2438400D03*
X-7848600Y+2819400D03*
X-7848600Y+838200D03*
X-5257800Y-2971800D03*
X-5257800Y-2743200D03*
X+1828800Y+2743200D03*
X-2057400Y+2971800D03*
X+990600Y+1676400D03*
X-1219200Y+2362200D03*
X-1219200Y+2743200D03*
X-2286000Y+2743200D03*
X+3657600Y-533400D03*
X+3657600Y+0D03*
X+2133600Y+0D03*
X+2133600Y+2514600D03*
X-8610600Y-3657600D03*
X-8458200Y+4267200D03*
X-4038600Y+4267200D03*
X-3352800Y+3657600D03*
X+1066800Y+533400D03*
X+5410200Y+76200D03*
X-914400Y-76200D03*
X-838200Y-1600200D03*
X+4876800Y-304800D03*
X+5410200Y-457200D03*
X+6629400Y-838200D03*
X-2209800Y-4114800D03*
X-2743200Y-4114800D03*
X-2743200Y-3276600D03*
X-2250000Y-3276600D03*
X+4876800Y-1905000D03*
X+2819400Y-2971800D03*
X+1143000Y-2362200D03*
X+1295400Y-1676400D03*
X+5486400Y-5029200D03*
X+2819400Y+304800D03*
X+3886200Y-3429000D03*
X+2133600Y-3429000D03*
X+3886200Y+685800D03*
X+4495800Y-2438400D03*
X+0Y-2133600D03*
X+0Y-3657600D03*
X+1676400Y-3657600D03*
X+2057400Y-3657600D03*
X+4267200Y-3657600D03*
X+3352800Y-914400D03*
X+381000Y-2743200D03*
X+4038600Y-2743200D03*
X-7010400Y-3352800D03*
X-4267200Y+2057400D03*
X-4267200Y-3352800D03*
X-3810000Y-2133600D03*
X-5486400Y-2133600D03*
X-4267200Y+4648200D03*
X-4267200Y+3352800D03*
X-8229600Y+3352800D03*
X-8229600Y-4114800D03*
X-8839200Y-4114800D03*
X-8458200Y+4572000D03*
X-3429000Y+4419600D03*
X+2057400Y+5867400D03*
X-3276600Y-914400D03*
X-5562600Y+2286000D03*
X-4267200Y+2286000D03*
X-3276600Y+1447800D03*
X-3276600Y+838200D03*
X-3886200Y+1447800D03*
X-3733800Y+3886200D03*
X-1219200Y+76200D03*
X-3429000Y+5181600D03*
X-7315200Y+3581400D03*
X-3962400Y+3352800D03*
D15*
X-534482Y-1828882D03*
X-534482Y-2844882D03*
X-1034482Y-1828882D03*
X-1034482Y-2844882D03*
X-1500000Y-1810400D03*
X-1500000Y-2826400D03*
X-2000000Y-1810400D03*
X-2000000Y-2826400D03*
X-2500000Y-1810400D03*
X-2500000Y-2826400D03*
X-3000000Y-1810400D03*
X-3000000Y-2826400D03*
X-3500000Y-1810400D03*
X-3500000Y-2826400D03*
X-4000000Y-1810400D03*
X-4000000Y-2826400D03*
X+500000Y-4560400D03*
X+500000Y-4810400D03*
X-500000Y-4560400D03*
X-500000Y-4810400D03*
X-1500000Y-4560400D03*
X-1500000Y-4810400D03*
X-2250000Y-4560400D03*
X-2250000Y-4810400D03*
X-3250000Y-4560400D03*
X-3250000Y-4810400D03*
X-4000000Y-4560400D03*
X-4000000Y-4810400D03*
X-5000000Y-4560400D03*
X-5000000Y-4810400D03*
X-6000000Y-4560400D03*
X-6000000Y-4810400D03*
D16*
X-3230000Y+609600D03*
D17*
X-2976000Y+609600D03*
X-2722000Y+609600D03*
X-2468000Y+609600D03*
X-2214000Y+609600D03*
X-1960000Y+609600D03*
X-1706000Y+609600D03*
X-1452000Y+609600D03*
X-1198000Y+609600D03*
X-944000Y+609600D03*
X-690000Y+609600D03*
X-436000Y+609600D03*
X-182000Y+609600D03*
X+72000Y+609600D03*
X+72000Y+2133600D03*
X-182000Y+2133600D03*
X-436000Y+2133600D03*
X-690000Y+2133600D03*
X-944000Y+2133600D03*
X-1198000Y+2133600D03*
X-1452000Y+2133600D03*
X-1706000Y+2133600D03*
X-1960000Y+2133600D03*
X-2214000Y+2133600D03*
X-2468000Y+2133600D03*
X-2722000Y+2133600D03*
X-2976000Y+2133600D03*
X-3230000Y+2133600D03*
D18*
X-6532000Y-3454400D03*
X-6786000Y-3454400D03*
X-6532000Y-1930400D03*
X-6278000Y-3454400D03*
X-6278000Y-1930400D03*
X-6024000Y-1930400D03*
X-6786000Y-1930400D03*
X-5770000Y-1930400D03*
X-5770000Y-3454400D03*
X-6024000Y-3454400D03*
D16*
X-3230000Y-660400D03*
D17*
X-2976000Y-660400D03*
X-2722000Y-660400D03*
X-2468000Y-660400D03*
X-2214000Y-660400D03*
X-1960000Y-660400D03*
X-1706000Y-660400D03*
X-1452000Y-660400D03*
X-1452000Y+101600D03*
X-1706000Y+101600D03*
X-1960000Y+101600D03*
X-2214000Y+101600D03*
X-2468000Y+101600D03*
X-2722000Y+101600D03*
X-2976000Y+101600D03*
X-3230000Y+101600D03*
D16*
X-3230000Y+3149600D03*
D17*
X-2976000Y+3149600D03*
X-2722000Y+3149600D03*
X-2468000Y+3149600D03*
X-2214000Y+3149600D03*
X-1960000Y+3149600D03*
X-1706000Y+3149600D03*
X-1452000Y+3149600D03*
X-1452000Y+3911600D03*
X-1706000Y+3911600D03*
X-1960000Y+3911600D03*
X-2214000Y+3911600D03*
X-2468000Y+3911600D03*
X-2722000Y+3911600D03*
X-2976000Y+3911600D03*
X-3230000Y+3911600D03*
D16*
X-690000Y-660400D03*
D17*
X-436000Y-660400D03*
X-182000Y-660400D03*
X+72000Y-660400D03*
X+326000Y-660400D03*
X+580000Y-660400D03*
X+834000Y-660400D03*
X+1088000Y-660400D03*
X+1088000Y+101600D03*
X+834000Y+101600D03*
X+580000Y+101600D03*
X+326000Y+101600D03*
X+72000Y+101600D03*
X-182000Y+101600D03*
X-436000Y+101600D03*
X-690000Y+101600D03*
D16*
X-690000Y+3149600D03*
D17*
X-436000Y+3149600D03*
X-182000Y+3149600D03*
X+72000Y+3149600D03*
X+326000Y+3149600D03*
X+580000Y+3149600D03*
X+834000Y+3149600D03*
X+1088000Y+3149600D03*
X+1088000Y+3911600D03*
X+834000Y+3911600D03*
X+580000Y+3911600D03*
X+326000Y+3911600D03*
X+72000Y+3911600D03*
X-182000Y+3911600D03*
X-436000Y+3911600D03*
X-690000Y+3911600D03*
D16*
X-4500000Y+609600D03*
D17*
X-4500000Y+355600D03*
X-4500000Y+101600D03*
X-4500000Y-152400D03*
X-4500000Y-406400D03*
X-4500000Y-660400D03*
X-4500000Y-914400D03*
X-3738000Y-914400D03*
X-3738000Y-660400D03*
X-3738000Y-406400D03*
X-3738000Y-152400D03*
X-3738000Y+101600D03*
X-3738000Y+355600D03*
X-3738000Y+609600D03*
D16*
X-3230000Y+4419600D03*
D17*
X-2976000Y+4419600D03*
X-2722000Y+4419600D03*
X-2468000Y+4419600D03*
X-2214000Y+4419600D03*
X-1960000Y+4419600D03*
X-1706000Y+4419600D03*
X-1706000Y+5181600D03*
X-1960000Y+5181600D03*
X-2214000Y+5181600D03*
X-2468000Y+5181600D03*
X-2722000Y+5181600D03*
X-2976000Y+5181600D03*
X-3230000Y+5181600D03*
D16*
X-7040000Y-660400D03*
D17*
X-6786000Y-660400D03*
X-6532000Y-660400D03*
X-6278000Y-660400D03*
X-6024000Y-660400D03*
X-5770000Y-660400D03*
X-5516000Y-660400D03*
X-5262000Y-660400D03*
X-5262000Y+101600D03*
X-5516000Y+101600D03*
X-5770000Y+101600D03*
X-6024000Y+101600D03*
X-6278000Y+101600D03*
X-6532000Y+101600D03*
X-6786000Y+101600D03*
X-7040000Y+101600D03*
D16*
X-3230000Y+5689600D03*
D17*
X-2976000Y+5689600D03*
X-2722000Y+5689600D03*
X-2468000Y+5689600D03*
X-2214000Y+5689600D03*
X-1960000Y+5689600D03*
X-1706000Y+5689600D03*
X-1706000Y+6451600D03*
X-1960000Y+6451600D03*
X-2214000Y+6451600D03*
X-2468000Y+6451600D03*
X-2722000Y+6451600D03*
X-2976000Y+6451600D03*
X-3230000Y+6451600D03*
D16*
X-7040000Y+609600D03*
D17*
X-6786000Y+609600D03*
X-6532000Y+609600D03*
X-6278000Y+609600D03*
X-6024000Y+609600D03*
X-5770000Y+609600D03*
X-5516000Y+609600D03*
X-5516000Y+1371600D03*
X-5770000Y+1371600D03*
X-6024000Y+1371600D03*
X-6278000Y+1371600D03*
X-6532000Y+1371600D03*
X-6786000Y+1371600D03*
X-7040000Y+1371600D03*
D16*
X-7040000Y+1879600D03*
D17*
X-6786000Y+1879600D03*
X-6532000Y+1879600D03*
X-6278000Y+1879600D03*
X-6024000Y+1879600D03*
X-5770000Y+1879600D03*
X-5516000Y+1879600D03*
X-5516000Y+2641600D03*
X-5770000Y+2641600D03*
X-6024000Y+2641600D03*
X-6278000Y+2641600D03*
X-6532000Y+2641600D03*
X-6786000Y+2641600D03*
X-7040000Y+2641600D03*
D19*
X+3080000Y-4450400D03*
X+3080000Y-4958400D03*
X+4390000Y-4470400D03*
X+4390000Y-4978400D03*
D70*
X+2104000Y-4470400D03*
X+1850000Y-4470400D03*
X+1596000Y-4470400D03*
D16*
X+580000Y-1930400D03*
D17*
X+580000Y-1676400D03*
X+580000Y-1422400D03*
X+580000Y-1168400D03*
X-182000Y-1168400D03*
X-182000Y-1422400D03*
X-182000Y-1676400D03*
X-182000Y-1930400D03*
D16*
X+1850000Y-3200400D03*
D17*
X+2104000Y-3200400D03*
X+2358000Y-3200400D03*
X+2612000Y-3200400D03*
X+2612000Y-2438400D03*
X+2358000Y-2438400D03*
X+2104000Y-2438400D03*
X+1850000Y-2438400D03*
D16*
X+1850000Y-1930400D03*
D17*
X+1850000Y-1676400D03*
X+1850000Y-1422400D03*
X+1850000Y-1168400D03*
X+1088000Y-1168400D03*
X+1088000Y-1422400D03*
X+1088000Y-1676400D03*
X+1088000Y-1930400D03*
D71*
X-7540000Y-2470400D03*
X-7540000Y-2216400D03*
X-7840000Y-3870400D03*
X-7586000Y-3870400D03*
D15*
X+4390000Y+1879600D03*
X+4390000Y+863600D03*
X+3120000Y+1879600D03*
X+3120000Y+863600D03*
X+1850000Y+1879600D03*
X+1850000Y+863600D03*
X+580000Y+1879600D03*
X+580000Y+863600D03*
X+5660000Y+609600D03*
X+5660000Y-406400D03*
X+5660000Y-1930400D03*
X+4644000Y-1930400D03*
X+4390000Y-660400D03*
X+4898000Y-660400D03*
X+5660000Y+3149600D03*
X+5152000Y+3149600D03*
X+5660000Y-3200400D03*
X+5152000Y-3200400D03*
X+3120000Y-3200400D03*
X+3628000Y-3200400D03*
X+5660000Y-4470400D03*
X+6168000Y-4470400D03*
X+3120000Y-1930400D03*
X+2612000Y-1930400D03*
D70*
X+7000000Y-1310400D03*
X+6930000Y-660400D03*
D20*
X-4000000Y-4750000D03*
D21*
X-9000000Y-6310400D02*
X+7750000Y-6310400D01*
X+7750000Y+7439600D01*
X-9000000Y+7439600D01*
X-9000000Y-6310400D01*
M02*
