G04 PROTEUS GERBER X2 FILE*
%TF.GenerationSoftware,Labcenter,Proteus,8.16-SP3-Build36097*%
%TF.CreationDate,2024-05-06T12:20:01+00:00*%
%TF.FileFunction,AssemblyDrawing,Top*%
%TF.FilePolarity,Positive*%
%TF.Part,Single*%
%TF.SameCoordinates,{807a0646-054e-4b8c-a3a0-1762012dc6c7}*%
%FSLAX45Y45*%
%MOMM*%
G01*
%TA.AperFunction,Material*%
%ADD22C,0.101600*%
%ADD73C,0.711200*%
%ADD30C,0.117340*%
%ADD31C,0.090670*%
%TA.AperFunction,Profile*%
%ADD21C,0.101600*%
%TA.AperFunction,Material*%
%ADD32C,0.508000*%
%ADD33C,0.760270*%
%ADD34C,1.016000*%
%ADD35C,0.324690*%
%ADD36C,0.148770*%
%ADD37C,0.161670*%
%ADD38C,0.195650*%
%ADD39C,0.440230*%
%ADD40C,0.339190*%
%ADD41C,0.186940*%
%ADD42C,0.151630*%
%ADD43C,1.524000*%
%ADD44C,0.188590*%
%ADD45C,0.144900*%
%ADD46C,0.812800*%
%ADD47C,0.129320*%
%ADD48C,0.147000*%
%ADD49C,0.113600*%
%ADD50C,0.060570*%
%ADD51C,0.067810*%
%ADD52C,0.075650*%
%ADD53C,0.099060*%
%ADD54C,0.042450*%
%ADD55C,0.084660*%
%TD.AperFunction*%
D22*
X-623382Y-2933782D02*
X-445582Y-2933782D01*
X-445582Y-1739982D01*
X-623382Y-1739982D01*
X-623382Y-2933782D01*
D73*
X-534482Y-1828882D02*
X-534482Y-1828882D01*
D30*
X-499278Y-2504724D02*
X-569686Y-2504724D01*
X-569686Y-2438717D01*
X-557951Y-2425515D01*
X-546217Y-2425515D01*
X-534482Y-2438717D01*
X-534482Y-2504724D01*
X-534482Y-2438717D02*
X-522747Y-2425515D01*
X-499278Y-2425515D01*
X-522747Y-2319903D02*
X-522747Y-2399112D01*
X-569686Y-2346306D01*
X-499278Y-2346306D01*
D22*
X-1123382Y-2933782D02*
X-945582Y-2933782D01*
X-945582Y-1739982D01*
X-1123382Y-1739982D01*
X-1123382Y-2933782D01*
D73*
X-1034482Y-1828882D02*
X-1034482Y-1828882D01*
D30*
X-999278Y-2504724D02*
X-1069686Y-2504724D01*
X-1069686Y-2438717D01*
X-1057951Y-2425515D01*
X-1046217Y-2425515D01*
X-1034482Y-2438717D01*
X-1034482Y-2504724D01*
X-1034482Y-2438717D02*
X-1022747Y-2425515D01*
X-999278Y-2425515D01*
X-1069686Y-2319903D02*
X-1069686Y-2385911D01*
X-1046217Y-2385911D01*
X-1046217Y-2333105D01*
X-1034482Y-2319903D01*
X-1011013Y-2319903D01*
X-999278Y-2333105D01*
X-999278Y-2372709D01*
X-1011013Y-2385911D01*
D22*
X-1588900Y-2915300D02*
X-1411100Y-2915300D01*
X-1411100Y-1721500D01*
X-1588900Y-1721500D01*
X-1588900Y-2915300D01*
D73*
X-1500000Y-1810400D02*
X-1500000Y-1810400D01*
D30*
X-1464796Y-2486242D02*
X-1535204Y-2486242D01*
X-1535204Y-2420235D01*
X-1523469Y-2407033D01*
X-1511735Y-2407033D01*
X-1500000Y-2420235D01*
X-1500000Y-2486242D01*
X-1500000Y-2420235D02*
X-1488265Y-2407033D01*
X-1464796Y-2407033D01*
X-1523469Y-2301421D02*
X-1535204Y-2314623D01*
X-1535204Y-2354227D01*
X-1523469Y-2367429D01*
X-1476531Y-2367429D01*
X-1464796Y-2354227D01*
X-1464796Y-2314623D01*
X-1476531Y-2301421D01*
X-1488265Y-2301421D01*
X-1500000Y-2314623D01*
X-1500000Y-2367429D01*
D22*
X-2088900Y-2915300D02*
X-1911100Y-2915300D01*
X-1911100Y-1721500D01*
X-2088900Y-1721500D01*
X-2088900Y-2915300D01*
D73*
X-2000000Y-1810400D02*
X-2000000Y-1810400D01*
D30*
X-1964796Y-2486242D02*
X-2035204Y-2486242D01*
X-2035204Y-2420235D01*
X-2023469Y-2407033D01*
X-2011735Y-2407033D01*
X-2000000Y-2420235D01*
X-2000000Y-2486242D01*
X-2000000Y-2420235D02*
X-1988265Y-2407033D01*
X-1964796Y-2407033D01*
X-2035204Y-2367429D02*
X-2035204Y-2301421D01*
X-2023469Y-2301421D01*
X-1964796Y-2367429D01*
D22*
X-2588900Y-2915300D02*
X-2411100Y-2915300D01*
X-2411100Y-1721500D01*
X-2588900Y-1721500D01*
X-2588900Y-2915300D01*
D73*
X-2500000Y-1810400D02*
X-2500000Y-1810400D01*
D30*
X-2464796Y-2486242D02*
X-2535204Y-2486242D01*
X-2535204Y-2420235D01*
X-2523469Y-2407033D01*
X-2511735Y-2407033D01*
X-2500000Y-2420235D01*
X-2500000Y-2486242D01*
X-2500000Y-2420235D02*
X-2488265Y-2407033D01*
X-2464796Y-2407033D01*
X-2500000Y-2354227D02*
X-2511735Y-2367429D01*
X-2523469Y-2367429D01*
X-2535204Y-2354227D01*
X-2535204Y-2314623D01*
X-2523469Y-2301421D01*
X-2511735Y-2301421D01*
X-2500000Y-2314623D01*
X-2500000Y-2354227D01*
X-2488265Y-2367429D01*
X-2476531Y-2367429D01*
X-2464796Y-2354227D01*
X-2464796Y-2314623D01*
X-2476531Y-2301421D01*
X-2488265Y-2301421D01*
X-2500000Y-2314623D01*
D22*
X-3088900Y-2915300D02*
X-2911100Y-2915300D01*
X-2911100Y-1721500D01*
X-3088900Y-1721500D01*
X-3088900Y-2915300D01*
D73*
X-3000000Y-1810400D02*
X-3000000Y-1810400D01*
D30*
X-2964796Y-2486242D02*
X-3035204Y-2486242D01*
X-3035204Y-2420235D01*
X-3023469Y-2407033D01*
X-3011735Y-2407033D01*
X-3000000Y-2420235D01*
X-3000000Y-2486242D01*
X-3000000Y-2420235D02*
X-2988265Y-2407033D01*
X-2964796Y-2407033D01*
X-3011735Y-2301421D02*
X-3000000Y-2314623D01*
X-3000000Y-2354227D01*
X-3011735Y-2367429D01*
X-3023469Y-2367429D01*
X-3035204Y-2354227D01*
X-3035204Y-2314623D01*
X-3023469Y-2301421D01*
X-2976531Y-2301421D01*
X-2964796Y-2314623D01*
X-2964796Y-2354227D01*
D22*
X-3588900Y-2915300D02*
X-3411100Y-2915300D01*
X-3411100Y-1721500D01*
X-3588900Y-1721500D01*
X-3588900Y-2915300D01*
D73*
X-3500000Y-1810400D02*
X-3500000Y-1810400D01*
D30*
X-3464796Y-2539048D02*
X-3535204Y-2539048D01*
X-3535204Y-2473041D01*
X-3523469Y-2459839D01*
X-3511735Y-2459839D01*
X-3500000Y-2473041D01*
X-3500000Y-2539048D01*
X-3500000Y-2473041D02*
X-3488265Y-2459839D01*
X-3464796Y-2459839D01*
X-3511735Y-2407033D02*
X-3535204Y-2380630D01*
X-3464796Y-2380630D01*
X-3476531Y-2327824D02*
X-3523469Y-2327824D01*
X-3535204Y-2314623D01*
X-3535204Y-2261817D01*
X-3523469Y-2248615D01*
X-3476531Y-2248615D01*
X-3464796Y-2261817D01*
X-3464796Y-2314623D01*
X-3476531Y-2327824D01*
X-3464796Y-2327824D02*
X-3535204Y-2248615D01*
D22*
X-4088900Y-2915300D02*
X-3911100Y-2915300D01*
X-3911100Y-1721500D01*
X-4088900Y-1721500D01*
X-4088900Y-2915300D01*
D73*
X-4000000Y-1810400D02*
X-4000000Y-1810400D01*
D30*
X-3964796Y-2539048D02*
X-4035204Y-2539048D01*
X-4035204Y-2473041D01*
X-4023469Y-2459839D01*
X-4011735Y-2459839D01*
X-4000000Y-2473041D01*
X-4000000Y-2539048D01*
X-4000000Y-2473041D02*
X-3988265Y-2459839D01*
X-3964796Y-2459839D01*
X-4011735Y-2407033D02*
X-4035204Y-2380630D01*
X-3964796Y-2380630D01*
X-4011735Y-2301421D02*
X-4035204Y-2275018D01*
X-3964796Y-2275018D01*
D22*
X+430150Y-4880250D02*
X+569850Y-4880250D01*
X+569850Y-4490550D01*
X+430150Y-4490550D01*
X+430150Y-4880250D01*
D73*
X+500000Y-4560400D02*
X+500000Y-4560400D01*
D31*
X+527204Y-4819715D02*
X+472797Y-4819715D01*
X+472797Y-4768709D01*
X+481865Y-4758508D01*
X+490933Y-4758508D01*
X+500000Y-4768709D01*
X+509068Y-4758508D01*
X+518136Y-4758508D01*
X+527204Y-4768709D01*
X+527204Y-4819715D01*
X+500000Y-4819715D02*
X+500000Y-4768709D01*
X+509068Y-4676898D02*
X+509068Y-4738105D01*
X+472797Y-4697300D01*
X+527204Y-4697300D01*
D22*
X-569850Y-4880250D02*
X-430150Y-4880250D01*
X-430150Y-4490550D01*
X-569850Y-4490550D01*
X-569850Y-4880250D01*
D73*
X-500000Y-4560400D02*
X-500000Y-4560400D01*
D31*
X-472796Y-4819715D02*
X-527203Y-4819715D01*
X-527203Y-4768709D01*
X-518135Y-4758508D01*
X-509067Y-4758508D01*
X-500000Y-4768709D01*
X-490932Y-4758508D01*
X-481864Y-4758508D01*
X-472796Y-4768709D01*
X-472796Y-4819715D01*
X-500000Y-4819715D02*
X-500000Y-4768709D01*
X-527203Y-4676898D02*
X-527203Y-4727904D01*
X-509067Y-4727904D01*
X-509067Y-4687099D01*
X-500000Y-4676898D01*
X-481864Y-4676898D01*
X-472796Y-4687099D01*
X-472796Y-4717703D01*
X-481864Y-4727904D01*
D22*
X-1569850Y-4880250D02*
X-1430150Y-4880250D01*
X-1430150Y-4490550D01*
X-1569850Y-4490550D01*
X-1569850Y-4880250D01*
D73*
X-1500000Y-4560400D02*
X-1500000Y-4560400D01*
D31*
X-1472796Y-4819715D02*
X-1527203Y-4819715D01*
X-1527203Y-4768709D01*
X-1518135Y-4758508D01*
X-1509067Y-4758508D01*
X-1500000Y-4768709D01*
X-1490932Y-4758508D01*
X-1481864Y-4758508D01*
X-1472796Y-4768709D01*
X-1472796Y-4819715D01*
X-1500000Y-4819715D02*
X-1500000Y-4768709D01*
X-1518135Y-4676898D02*
X-1527203Y-4687099D01*
X-1527203Y-4717703D01*
X-1518135Y-4727904D01*
X-1481864Y-4727904D01*
X-1472796Y-4717703D01*
X-1472796Y-4687099D01*
X-1481864Y-4676898D01*
X-1490932Y-4676898D01*
X-1500000Y-4687099D01*
X-1500000Y-4727904D01*
D22*
X-2319850Y-4880250D02*
X-2180150Y-4880250D01*
X-2180150Y-4490550D01*
X-2319850Y-4490550D01*
X-2319850Y-4880250D01*
D73*
X-2250000Y-4560400D02*
X-2250000Y-4560400D01*
D31*
X-2222796Y-4819715D02*
X-2277203Y-4819715D01*
X-2277203Y-4768709D01*
X-2268135Y-4758508D01*
X-2259067Y-4758508D01*
X-2250000Y-4768709D01*
X-2240932Y-4758508D01*
X-2231864Y-4758508D01*
X-2222796Y-4768709D01*
X-2222796Y-4819715D01*
X-2250000Y-4819715D02*
X-2250000Y-4768709D01*
X-2277203Y-4727904D02*
X-2277203Y-4676898D01*
X-2268135Y-4676898D01*
X-2222796Y-4727904D01*
D22*
X-3319850Y-4880250D02*
X-3180150Y-4880250D01*
X-3180150Y-4490550D01*
X-3319850Y-4490550D01*
X-3319850Y-4880250D01*
D73*
X-3250000Y-4560400D02*
X-3250000Y-4560400D01*
D31*
X-3222796Y-4819715D02*
X-3277203Y-4819715D01*
X-3277203Y-4768709D01*
X-3268135Y-4758508D01*
X-3259067Y-4758508D01*
X-3250000Y-4768709D01*
X-3240932Y-4758508D01*
X-3231864Y-4758508D01*
X-3222796Y-4768709D01*
X-3222796Y-4819715D01*
X-3250000Y-4819715D02*
X-3250000Y-4768709D01*
X-3250000Y-4717703D02*
X-3259067Y-4727904D01*
X-3268135Y-4727904D01*
X-3277203Y-4717703D01*
X-3277203Y-4687099D01*
X-3268135Y-4676898D01*
X-3259067Y-4676898D01*
X-3250000Y-4687099D01*
X-3250000Y-4717703D01*
X-3240932Y-4727904D01*
X-3231864Y-4727904D01*
X-3222796Y-4717703D01*
X-3222796Y-4687099D01*
X-3231864Y-4676898D01*
X-3240932Y-4676898D01*
X-3250000Y-4687099D01*
D22*
X-4069850Y-4880250D02*
X-3930150Y-4880250D01*
X-3930150Y-4490550D01*
X-4069850Y-4490550D01*
X-4069850Y-4880250D01*
D73*
X-4000000Y-4560400D02*
X-4000000Y-4560400D01*
D31*
X-3972796Y-4819715D02*
X-4027203Y-4819715D01*
X-4027203Y-4768709D01*
X-4018135Y-4758508D01*
X-4009067Y-4758508D01*
X-4000000Y-4768709D01*
X-3990932Y-4758508D01*
X-3981864Y-4758508D01*
X-3972796Y-4768709D01*
X-3972796Y-4819715D01*
X-4000000Y-4819715D02*
X-4000000Y-4768709D01*
X-4009067Y-4676898D02*
X-4000000Y-4687099D01*
X-4000000Y-4717703D01*
X-4009067Y-4727904D01*
X-4018135Y-4727904D01*
X-4027203Y-4717703D01*
X-4027203Y-4687099D01*
X-4018135Y-4676898D01*
X-3981864Y-4676898D01*
X-3972796Y-4687099D01*
X-3972796Y-4717703D01*
D22*
X-5069850Y-4880250D02*
X-4930150Y-4880250D01*
X-4930150Y-4490550D01*
X-5069850Y-4490550D01*
X-5069850Y-4880250D01*
D73*
X-5000000Y-4560400D02*
X-5000000Y-4560400D01*
D31*
X-4972796Y-4860520D02*
X-5027203Y-4860520D01*
X-5027203Y-4809514D01*
X-5018135Y-4799313D01*
X-5009067Y-4799313D01*
X-5000000Y-4809514D01*
X-4990932Y-4799313D01*
X-4981864Y-4799313D01*
X-4972796Y-4809514D01*
X-4972796Y-4860520D01*
X-5000000Y-4860520D02*
X-5000000Y-4809514D01*
X-5009067Y-4758508D02*
X-5027203Y-4738105D01*
X-4972796Y-4738105D01*
X-4981864Y-4697300D02*
X-5018135Y-4697300D01*
X-5027203Y-4687099D01*
X-5027203Y-4646294D01*
X-5018135Y-4636093D01*
X-4981864Y-4636093D01*
X-4972796Y-4646294D01*
X-4972796Y-4687099D01*
X-4981864Y-4697300D01*
X-4972796Y-4697300D02*
X-5027203Y-4636093D01*
D22*
X-6069850Y-4880250D02*
X-5930150Y-4880250D01*
X-5930150Y-4490550D01*
X-6069850Y-4490550D01*
X-6069850Y-4880250D01*
D73*
X-6000000Y-4560400D02*
X-6000000Y-4560400D01*
D31*
X-5972796Y-4860520D02*
X-6027203Y-4860520D01*
X-6027203Y-4809514D01*
X-6018135Y-4799313D01*
X-6009067Y-4799313D01*
X-6000000Y-4809514D01*
X-5990932Y-4799313D01*
X-5981864Y-4799313D01*
X-5972796Y-4809514D01*
X-5972796Y-4860520D01*
X-6000000Y-4860520D02*
X-6000000Y-4809514D01*
X-6009067Y-4758508D02*
X-6027203Y-4738105D01*
X-5972796Y-4738105D01*
X-6009067Y-4676898D02*
X-6027203Y-4656495D01*
X-5972796Y-4656495D01*
D21*
X-9000000Y-6310400D02*
X+7750000Y-6310400D01*
X+7750000Y+7439600D01*
X-9000000Y+7439600D01*
X-9000000Y-6310400D01*
D22*
X-3362080Y+546100D02*
X+204080Y+546100D01*
X+204080Y+2197100D01*
X-3362080Y+2197100D01*
X-3362080Y+546100D01*
D32*
X-3230000Y+609600D02*
X-3230000Y+609600D01*
D33*
X-2526626Y+1143518D02*
X-2526626Y+1447627D01*
X-2355565Y+1599681D01*
X-2184504Y+1599681D01*
X-2013443Y+1447627D01*
X-2013443Y+1143518D01*
X-2526626Y+1295572D02*
X-2013443Y+1295572D01*
X-1842382Y+1143518D02*
X-1842382Y+1599681D01*
X-1500260Y+1599681D01*
X-1329199Y+1447627D01*
X-1329199Y+1295572D01*
X-1500260Y+1143518D01*
X-1842382Y+1143518D01*
X-644955Y+1219545D02*
X-730486Y+1143518D01*
X-987077Y+1143518D01*
X-1158138Y+1295572D01*
X-1158138Y+1447627D01*
X-987077Y+1599681D01*
X-730486Y+1599681D01*
X-644955Y+1523654D01*
D22*
X-7045080Y-3713480D02*
X-5510920Y-3713480D01*
X-5510920Y-1671320D01*
X-7045080Y-1671320D01*
X-7045080Y-3713480D01*
D34*
X-6532000Y-3454400D02*
X-6532000Y-3454400D01*
D35*
X-6375409Y-3085386D02*
X-6375409Y-2902744D01*
X-6342939Y-2902744D01*
X-6180591Y-3085386D01*
X-6213061Y-2829687D02*
X-6180591Y-2793159D01*
X-6180591Y-2647046D01*
X-6213061Y-2610517D01*
X-6245530Y-2610517D01*
X-6278000Y-2647046D01*
X-6278000Y-2793159D01*
X-6310470Y-2829687D01*
X-6342939Y-2829687D01*
X-6375409Y-2793159D01*
X-6375409Y-2647046D01*
X-6342939Y-2610517D01*
X-6180591Y-2318290D02*
X-6180591Y-2537460D01*
X-6375409Y-2537460D01*
X-6375409Y-2318290D01*
X-6278000Y-2537460D02*
X-6278000Y-2391347D01*
X-6245530Y-2099120D02*
X-6245530Y-2026063D01*
X-6180591Y-2026063D01*
X-6180591Y-2172177D01*
X-6245530Y-2245233D01*
X-6310470Y-2245233D01*
X-6375409Y-2172177D01*
X-6375409Y-2062592D01*
X-6342939Y-2026063D01*
D22*
X-3362080Y-723900D02*
X-1319920Y-723900D01*
X-1319920Y+165100D01*
X-3362080Y+165100D01*
X-3362080Y-723900D01*
D32*
X-3230000Y-660400D02*
X-3230000Y-660400D01*
D36*
X-2965199Y-309154D02*
X-2981935Y-324031D01*
X-3032145Y-324031D01*
X-3065618Y-294277D01*
X-3065618Y-264523D01*
X-3032145Y-234769D01*
X-2981935Y-234769D01*
X-2965199Y-249646D01*
X-2931725Y-264523D02*
X-2898252Y-234769D01*
X-2864779Y-234769D01*
X-2831306Y-264523D01*
X-2831306Y-294277D01*
X-2864779Y-324031D01*
X-2898252Y-324031D01*
X-2931725Y-294277D01*
X-2931725Y-264523D01*
X-2797832Y-324031D02*
X-2797832Y-234769D01*
X-2747623Y-279400D01*
X-2697413Y-234769D01*
X-2697413Y-324031D01*
X-2663939Y-324031D02*
X-2663939Y-234769D01*
X-2580256Y-234769D01*
X-2563520Y-249646D01*
X-2563520Y-264523D01*
X-2580256Y-279400D01*
X-2663939Y-279400D01*
X-2496573Y-264523D02*
X-2463100Y-234769D01*
X-2463100Y-324031D01*
X-2329207Y-234769D02*
X-2362680Y-264523D01*
X-2362680Y-294277D01*
X-2329207Y-324031D01*
X-2161841Y-309154D02*
X-2178577Y-324031D01*
X-2228787Y-324031D01*
X-2262260Y-294277D01*
X-2262260Y-264523D01*
X-2228787Y-234769D01*
X-2178577Y-234769D01*
X-2161841Y-249646D01*
X-2128367Y-264523D02*
X-2094894Y-234769D01*
X-2061421Y-234769D01*
X-2027948Y-264523D01*
X-2027948Y-294277D01*
X-2061421Y-324031D01*
X-2094894Y-324031D01*
X-2128367Y-294277D01*
X-2128367Y-264523D01*
X-1994474Y-234769D02*
X-1994474Y-309154D01*
X-1977738Y-324031D01*
X-1910791Y-324031D01*
X-1894055Y-309154D01*
X-1894055Y-234769D01*
X-1860581Y-324031D02*
X-1860581Y-234769D01*
X-1760162Y-324031D01*
X-1760162Y-234769D01*
X-1726688Y-234769D02*
X-1626269Y-234769D01*
X-1676479Y-234769D02*
X-1676479Y-324031D01*
X-1542586Y-234769D02*
X-1509112Y-264523D01*
X-1509112Y-294277D01*
X-1542586Y-324031D01*
D22*
X-3362080Y+3086100D02*
X-1319920Y+3086100D01*
X-1319920Y+3975100D01*
X-3362080Y+3975100D01*
X-3362080Y+3086100D01*
D32*
X-3230000Y+3149600D02*
X-3230000Y+3149600D01*
D37*
X-2953404Y+3498265D02*
X-2971592Y+3482098D01*
X-3026156Y+3482098D01*
X-3062532Y+3514432D01*
X-3062532Y+3546767D01*
X-3026156Y+3579101D01*
X-2971592Y+3579101D01*
X-2953404Y+3562934D01*
X-2917028Y+3546767D02*
X-2880652Y+3579101D01*
X-2844276Y+3579101D01*
X-2807900Y+3546767D01*
X-2807900Y+3514432D01*
X-2844276Y+3482098D01*
X-2880652Y+3482098D01*
X-2917028Y+3514432D01*
X-2917028Y+3546767D01*
X-2771524Y+3482098D02*
X-2771524Y+3579101D01*
X-2716960Y+3530600D01*
X-2662396Y+3579101D01*
X-2662396Y+3482098D01*
X-2626020Y+3482098D02*
X-2626020Y+3579101D01*
X-2535080Y+3579101D01*
X-2516892Y+3562934D01*
X-2516892Y+3546767D01*
X-2535080Y+3530600D01*
X-2626020Y+3530600D01*
X-2462328Y+3562934D02*
X-2444140Y+3579101D01*
X-2389576Y+3579101D01*
X-2371388Y+3562934D01*
X-2371388Y+3546767D01*
X-2389576Y+3530600D01*
X-2444140Y+3530600D01*
X-2462328Y+3514432D01*
X-2462328Y+3482098D01*
X-2371388Y+3482098D01*
X-2262260Y+3579101D02*
X-2298636Y+3546767D01*
X-2298636Y+3514432D01*
X-2262260Y+3482098D01*
X-2189508Y+3579101D02*
X-2080380Y+3579101D01*
X-2134944Y+3579101D02*
X-2134944Y+3482098D01*
X-1934876Y+3482098D02*
X-2044004Y+3482098D01*
X-2044004Y+3579101D01*
X-1934876Y+3579101D01*
X-2044004Y+3530600D02*
X-1971252Y+3530600D01*
X-1898500Y+3482098D02*
X-1898500Y+3579101D01*
X-1843936Y+3530600D01*
X-1789372Y+3579101D01*
X-1789372Y+3482098D01*
X-1752996Y+3482098D02*
X-1752996Y+3579101D01*
X-1662056Y+3579101D01*
X-1643868Y+3562934D01*
X-1643868Y+3546767D01*
X-1662056Y+3530600D01*
X-1752996Y+3530600D01*
X-1552928Y+3579101D02*
X-1516552Y+3546767D01*
X-1516552Y+3514432D01*
X-1552928Y+3482098D01*
D22*
X-822080Y-723900D02*
X+1220080Y-723900D01*
X+1220080Y+165100D01*
X-822080Y+165100D01*
X-822080Y-723900D01*
D32*
X-690000Y-660400D02*
X-690000Y-660400D01*
D37*
X-413404Y-311735D02*
X-431592Y-327902D01*
X-486156Y-327902D01*
X-522532Y-295568D01*
X-522532Y-263233D01*
X-486156Y-230899D01*
X-431592Y-230899D01*
X-413404Y-247066D01*
X-377028Y-263233D02*
X-340652Y-230899D01*
X-304276Y-230899D01*
X-267900Y-263233D01*
X-267900Y-295568D01*
X-304276Y-327902D01*
X-340652Y-327902D01*
X-377028Y-295568D01*
X-377028Y-263233D01*
X-231524Y-327902D02*
X-231524Y-230899D01*
X-176960Y-279400D01*
X-122396Y-230899D01*
X-122396Y-327902D01*
X-86020Y-327902D02*
X-86020Y-230899D01*
X+4920Y-230899D01*
X+23108Y-247066D01*
X+23108Y-263233D01*
X+4920Y-279400D01*
X-86020Y-279400D01*
X+77672Y-247066D02*
X+95860Y-230899D01*
X+150424Y-230899D01*
X+168612Y-247066D01*
X+168612Y-263233D01*
X+150424Y-279400D01*
X+168612Y-295568D01*
X+168612Y-311735D01*
X+150424Y-327902D01*
X+95860Y-327902D01*
X+77672Y-311735D01*
X+114048Y-279400D02*
X+150424Y-279400D01*
X+277740Y-230899D02*
X+241364Y-263233D01*
X+241364Y-295568D01*
X+277740Y-327902D01*
X+350492Y-230899D02*
X+459620Y-230899D01*
X+405056Y-230899D02*
X+405056Y-327902D01*
X+605124Y-327902D02*
X+495996Y-327902D01*
X+495996Y-230899D01*
X+605124Y-230899D01*
X+495996Y-279400D02*
X+568748Y-279400D01*
X+641500Y-327902D02*
X+641500Y-230899D01*
X+696064Y-279400D01*
X+750628Y-230899D01*
X+750628Y-327902D01*
X+787004Y-327902D02*
X+787004Y-230899D01*
X+877944Y-230899D01*
X+896132Y-247066D01*
X+896132Y-263233D01*
X+877944Y-279400D01*
X+787004Y-279400D01*
X+987072Y-230899D02*
X+1023448Y-263233D01*
X+1023448Y-295568D01*
X+987072Y-327902D01*
D22*
X-822080Y+3086100D02*
X+1220080Y+3086100D01*
X+1220080Y+3975100D01*
X-822080Y+3975100D01*
X-822080Y+3086100D01*
D32*
X-690000Y+3149600D02*
X-690000Y+3149600D01*
D38*
X-382601Y+3491469D02*
X-404613Y+3471903D01*
X-470647Y+3471903D01*
X-514669Y+3511034D01*
X-514669Y+3550166D01*
X-470647Y+3589297D01*
X-404613Y+3589297D01*
X-382601Y+3569731D01*
X-338578Y+3550166D02*
X-294556Y+3589297D01*
X-250533Y+3589297D01*
X-206510Y+3550166D01*
X-206510Y+3511034D01*
X-250533Y+3471903D01*
X-294556Y+3471903D01*
X-338578Y+3511034D01*
X-338578Y+3550166D01*
X-162487Y+3471903D02*
X-162487Y+3589297D01*
X-30419Y+3471903D01*
X-30419Y+3589297D01*
X+13604Y+3589297D02*
X+13604Y+3530600D01*
X+79638Y+3471903D01*
X+145672Y+3530600D01*
X+145672Y+3589297D01*
X+321763Y+3471903D02*
X+189695Y+3471903D01*
X+189695Y+3589297D01*
X+321763Y+3589297D01*
X+189695Y+3530600D02*
X+277740Y+3530600D01*
X+365786Y+3471903D02*
X+365786Y+3589297D01*
X+475842Y+3589297D01*
X+497854Y+3569731D01*
X+497854Y+3550166D01*
X+475842Y+3530600D01*
X+365786Y+3530600D01*
X+475842Y+3530600D02*
X+497854Y+3511034D01*
X+497854Y+3471903D01*
X+541877Y+3589297D02*
X+673945Y+3589297D01*
X+607911Y+3589297D02*
X+607911Y+3471903D01*
X+850036Y+3471903D02*
X+717968Y+3471903D01*
X+717968Y+3589297D01*
X+850036Y+3589297D01*
X+717968Y+3530600D02*
X+806013Y+3530600D01*
X+894059Y+3471903D02*
X+894059Y+3589297D01*
X+1004115Y+3589297D01*
X+1026127Y+3569731D01*
X+1026127Y+3550166D01*
X+1004115Y+3530600D01*
X+894059Y+3530600D01*
X+1004115Y+3530600D02*
X+1026127Y+3511034D01*
X+1026127Y+3471903D01*
D22*
X-4563500Y-1046480D02*
X-3674500Y-1046480D01*
X-3674500Y+741680D01*
X-4563500Y+741680D01*
X-4563500Y-1046480D01*
D32*
X-4500000Y+609600D02*
X-4500000Y+609600D01*
D39*
X-4251069Y-825452D02*
X-4030953Y-825452D01*
X-3986930Y-775926D01*
X-3986930Y-577822D01*
X-4030953Y-528296D01*
X-4251069Y-528296D01*
X-4163023Y-330192D02*
X-4251069Y-231140D01*
X-3986930Y-231140D01*
X-4163023Y+66016D02*
X-4251069Y+165068D01*
X-3986930Y+165068D01*
D22*
X-3362080Y+4356100D02*
X-1573920Y+4356100D01*
X-1573920Y+5245100D01*
X-3362080Y+5245100D01*
X-3362080Y+4356100D01*
D32*
X-3230000Y+4419600D02*
X-3230000Y+4419600D01*
D39*
X-2983572Y+4932669D02*
X-2983572Y+4712553D01*
X-2934046Y+4668530D01*
X-2735942Y+4668530D01*
X-2686416Y+4712553D01*
X-2686416Y+4932669D01*
X-2488312Y+4844623D02*
X-2389260Y+4932669D01*
X-2389260Y+4668530D01*
X-2141630Y+4888646D02*
X-2092104Y+4932669D01*
X-1943526Y+4932669D01*
X-1894000Y+4888646D01*
X-1894000Y+4844623D01*
X-1943526Y+4800600D01*
X-1894000Y+4756576D01*
X-1894000Y+4712553D01*
X-1943526Y+4668530D01*
X-2092104Y+4668530D01*
X-2141630Y+4712553D01*
X-2042578Y+4800600D02*
X-1943526Y+4800600D01*
D22*
X-7172080Y-723900D02*
X-5129920Y-723900D01*
X-5129920Y+165100D01*
X-7172080Y+165100D01*
X-7172080Y-723900D01*
D32*
X-7040000Y-660400D02*
X-7040000Y-660400D01*
D40*
X-6606498Y-347240D02*
X-6644658Y-381160D01*
X-6759138Y-381160D01*
X-6835457Y-313320D01*
X-6835457Y-245480D01*
X-6759138Y-177640D01*
X-6644658Y-177640D01*
X-6606498Y-211560D01*
X-6530178Y-245480D02*
X-6453859Y-177640D01*
X-6377539Y-177640D01*
X-6301219Y-245480D01*
X-6301219Y-313320D01*
X-6377539Y-381160D01*
X-6453859Y-381160D01*
X-6530178Y-313320D01*
X-6530178Y-245480D01*
X-6224899Y-177640D02*
X-6224899Y-347240D01*
X-6186740Y-381160D01*
X-6034100Y-381160D01*
X-5995940Y-347240D01*
X-5995940Y-177640D01*
X-5919620Y-381160D02*
X-5919620Y-177640D01*
X-5690661Y-381160D01*
X-5690661Y-177640D01*
X-5614341Y-177640D02*
X-5385382Y-177640D01*
X-5499862Y-177640D02*
X-5499862Y-381160D01*
D22*
X-3362080Y+5626100D02*
X-1573920Y+5626100D01*
X-1573920Y+6515100D01*
X-3362080Y+6515100D01*
X-3362080Y+5626100D01*
D32*
X-3230000Y+5689600D02*
X-3230000Y+5689600D01*
D39*
X-2785468Y+6202669D02*
X-2785468Y+5982553D01*
X-2735942Y+5938530D01*
X-2537838Y+5938530D01*
X-2488312Y+5982553D01*
X-2488312Y+6202669D01*
X-2290208Y+6114623D02*
X-2191156Y+6202669D01*
X-2191156Y+5938530D01*
D22*
X-7172080Y+546100D02*
X-5383920Y+546100D01*
X-5383920Y+1435100D01*
X-7172080Y+1435100D01*
X-7172080Y+546100D01*
D32*
X-7040000Y+609600D02*
X-7040000Y+609600D01*
D41*
X-6872256Y+934516D02*
X-6872256Y+1046683D01*
X-6746070Y+934516D01*
X-6746070Y+1046683D01*
X-6704007Y+1009294D02*
X-6661945Y+1046683D01*
X-6619883Y+1046683D01*
X-6577821Y+1009294D01*
X-6577821Y+971905D01*
X-6619883Y+934516D01*
X-6661945Y+934516D01*
X-6704007Y+971905D01*
X-6704007Y+1009294D01*
X-6535758Y+1046683D02*
X-6409572Y+1046683D01*
X-6472665Y+1046683D02*
X-6472665Y+934516D01*
X-6325447Y+1009294D02*
X-6283385Y+1046683D01*
X-6283385Y+934516D01*
X-6115136Y+1046683D02*
X-6157198Y+1009294D01*
X-6157198Y+971905D01*
X-6115136Y+934516D01*
X-6031011Y+1046683D02*
X-6031011Y+953211D01*
X-6009980Y+934516D01*
X-5925856Y+934516D01*
X-5904825Y+953211D01*
X-5904825Y+1046683D01*
X-5862762Y+934516D02*
X-5862762Y+1046683D01*
X-5757607Y+1046683D01*
X-5736576Y+1027988D01*
X-5736576Y+1009294D01*
X-5757607Y+990600D01*
X-5862762Y+990600D01*
X-5631420Y+1046683D02*
X-5589358Y+1009294D01*
X-5589358Y+971905D01*
X-5631420Y+934516D01*
D22*
X-7172080Y+1816100D02*
X-5383920Y+1816100D01*
X-5383920Y+2705100D01*
X-7172080Y+2705100D01*
X-7172080Y+1816100D01*
D32*
X-7040000Y+1879600D02*
X-7040000Y+1879600D01*
D42*
X-6881630Y+2215108D02*
X-6881630Y+2306091D01*
X-6779275Y+2215108D01*
X-6779275Y+2306091D01*
X-6745156Y+2275763D02*
X-6711038Y+2306091D01*
X-6676919Y+2306091D01*
X-6642801Y+2275763D01*
X-6642801Y+2245436D01*
X-6676919Y+2215108D01*
X-6711038Y+2215108D01*
X-6745156Y+2245436D01*
X-6745156Y+2275763D01*
X-6608682Y+2306091D02*
X-6506327Y+2306091D01*
X-6557505Y+2306091D02*
X-6557505Y+2215108D01*
X-6455149Y+2290927D02*
X-6438090Y+2306091D01*
X-6386912Y+2306091D01*
X-6369853Y+2290927D01*
X-6369853Y+2275763D01*
X-6386912Y+2260600D01*
X-6438090Y+2260600D01*
X-6455149Y+2245436D01*
X-6455149Y+2215108D01*
X-6369853Y+2215108D01*
X-6267497Y+2306091D02*
X-6301616Y+2275763D01*
X-6301616Y+2245436D01*
X-6267497Y+2215108D01*
X-6199260Y+2215108D02*
X-6199260Y+2306091D01*
X-6131023Y+2306091D01*
X-6096905Y+2275763D01*
X-6096905Y+2245436D01*
X-6131023Y+2215108D01*
X-6199260Y+2215108D01*
X-6062786Y+2275763D02*
X-6028668Y+2306091D01*
X-5994549Y+2306091D01*
X-5960431Y+2275763D01*
X-5960431Y+2245436D01*
X-5994549Y+2215108D01*
X-6028668Y+2215108D01*
X-6062786Y+2245436D01*
X-6062786Y+2275763D01*
X-5926312Y+2306091D02*
X-5926312Y+2215108D01*
X-5875135Y+2260600D01*
X-5823957Y+2215108D01*
X-5823957Y+2306091D01*
X-5789838Y+2215108D02*
X-5789838Y+2306091D01*
X-5687483Y+2215108D01*
X-5687483Y+2306091D01*
X-5602187Y+2306091D02*
X-5568068Y+2275763D01*
X-5568068Y+2245436D01*
X-5602187Y+2215108D01*
D22*
X+2312920Y-5344480D02*
X+3593080Y-5344480D01*
X+3593080Y-4064320D01*
X+2312920Y-4064320D01*
X+2312920Y-5344480D01*
D43*
X+3080000Y-4450400D02*
X+3080000Y-4450400D01*
D44*
X+2443795Y-4992118D02*
X+2443795Y-4878961D01*
X+2549879Y-4878961D01*
X+2571096Y-4897821D01*
X+2571096Y-4916680D01*
X+2549879Y-4935540D01*
X+2571096Y-4954399D01*
X+2571096Y-4973259D01*
X+2549879Y-4992118D01*
X+2443795Y-4992118D01*
X+2443795Y-4935540D02*
X+2549879Y-4935540D01*
X+2655963Y-4916680D02*
X+2698397Y-4878961D01*
X+2698397Y-4992118D01*
X+2868132Y-4878961D02*
X+2825698Y-4916680D01*
X+2825698Y-4954399D01*
X+2868132Y-4992118D01*
X+2953000Y-4878961D02*
X+2953000Y-4973259D01*
X+2974216Y-4992118D01*
X+3059084Y-4992118D01*
X+3080301Y-4973259D01*
X+3080301Y-4878961D01*
X+3122735Y-4992118D02*
X+3122735Y-4878961D01*
X+3228819Y-4878961D01*
X+3250036Y-4897821D01*
X+3250036Y-4916680D01*
X+3228819Y-4935540D01*
X+3122735Y-4935540D01*
X+3356120Y-4878961D02*
X+3398554Y-4916680D01*
X+3398554Y-4954399D01*
X+3356120Y-4992118D01*
D22*
X+3622920Y-5364480D02*
X+4903080Y-5364480D01*
X+4903080Y-4084320D01*
X+3622920Y-4084320D01*
X+3622920Y-5364480D01*
D43*
X+4390000Y-4470400D02*
X+4390000Y-4470400D01*
D45*
X+3741336Y-4999012D02*
X+3741336Y-4912068D01*
X+3822846Y-4912068D01*
X+3839148Y-4926559D01*
X+3839148Y-4941049D01*
X+3822846Y-4955540D01*
X+3839148Y-4970031D01*
X+3839148Y-4984521D01*
X+3822846Y-4999012D01*
X+3741336Y-4999012D01*
X+3741336Y-4955540D02*
X+3822846Y-4955540D01*
X+3888054Y-4926559D02*
X+3904356Y-4912068D01*
X+3953262Y-4912068D01*
X+3969564Y-4926559D01*
X+3969564Y-4941049D01*
X+3953262Y-4955540D01*
X+3904356Y-4955540D01*
X+3888054Y-4970031D01*
X+3888054Y-4999012D01*
X+3969564Y-4999012D01*
X+4067376Y-4912068D02*
X+4034772Y-4941049D01*
X+4034772Y-4970031D01*
X+4067376Y-4999012D01*
X+4132584Y-4999012D02*
X+4132584Y-4912068D01*
X+4197792Y-4912068D01*
X+4230396Y-4941049D01*
X+4230396Y-4970031D01*
X+4197792Y-4999012D01*
X+4132584Y-4999012D01*
X+4263000Y-4941049D02*
X+4295604Y-4912068D01*
X+4328208Y-4912068D01*
X+4360812Y-4941049D01*
X+4360812Y-4970031D01*
X+4328208Y-4999012D01*
X+4295604Y-4999012D01*
X+4263000Y-4970031D01*
X+4263000Y-4941049D01*
X+4393416Y-4912068D02*
X+4393416Y-4999012D01*
X+4442322Y-4955540D01*
X+4491228Y-4999012D01*
X+4491228Y-4912068D01*
X+4523832Y-4999012D02*
X+4523832Y-4912068D01*
X+4621644Y-4999012D01*
X+4621644Y-4912068D01*
X+4703154Y-4912068D02*
X+4735758Y-4941049D01*
X+4735758Y-4970031D01*
X+4703154Y-4999012D01*
D22*
X+1438520Y-4881880D02*
X+2261480Y-4881880D01*
X+2261480Y-4325620D01*
X+1438520Y-4325620D01*
X+1438520Y-4881880D01*
D46*
X+2104000Y-4470400D02*
X+2104000Y-4470400D01*
D47*
X+1518150Y-4564952D02*
X+1605446Y-4564952D01*
X+1561798Y-4564952D02*
X+1561798Y-4642549D01*
X+1721841Y-4642549D02*
X+1634545Y-4642549D01*
X+1634545Y-4564952D01*
X+1721841Y-4564952D01*
X+1634545Y-4603750D02*
X+1692742Y-4603750D01*
X+1750940Y-4642549D02*
X+1750940Y-4564952D01*
X+1794588Y-4603750D01*
X+1838236Y-4564952D01*
X+1838236Y-4642549D01*
X+1867335Y-4642549D02*
X+1867335Y-4564952D01*
X+1940081Y-4564952D01*
X+1954631Y-4577885D01*
X+1954631Y-4590818D01*
X+1940081Y-4603750D01*
X+1867335Y-4603750D01*
D22*
X-245500Y-2062480D02*
X+643500Y-2062480D01*
X+643500Y-1036320D01*
X-245500Y-1036320D01*
X-245500Y-2062480D01*
D32*
X+580000Y-1930400D02*
X+580000Y-1930400D01*
D48*
X+110450Y-1946303D02*
X+110450Y-1847078D01*
X+110450Y-1896691D02*
X+198651Y-1896691D01*
X+139850Y-1780927D02*
X+110450Y-1747852D01*
X+198651Y-1747852D01*
X+110450Y-1615551D02*
X+139850Y-1648626D01*
X+169251Y-1648626D01*
X+198651Y-1615551D01*
X+110450Y-1549400D02*
X+183951Y-1549400D01*
X+198651Y-1532863D01*
X+198651Y-1466712D01*
X+183951Y-1450175D01*
X+110450Y-1450175D01*
X+198651Y-1417099D02*
X+110450Y-1417099D01*
X+110450Y-1334411D01*
X+125150Y-1317874D01*
X+139850Y-1317874D01*
X+154550Y-1334411D01*
X+154550Y-1417099D01*
X+110450Y-1235186D02*
X+139850Y-1202110D01*
X+169251Y-1202110D01*
X+198651Y-1235186D01*
D22*
X+1717920Y-3263900D02*
X+2744080Y-3263900D01*
X+2744080Y-2374900D01*
X+1717920Y-2374900D01*
X+1717920Y-3263900D01*
D32*
X+1850000Y-3200400D02*
X+1850000Y-3200400D01*
D49*
X+1822040Y-2740870D02*
X+1898720Y-2740870D01*
X+1860380Y-2740870D02*
X+1860380Y-2809030D01*
X+1937060Y-2752230D02*
X+1949840Y-2740870D01*
X+1988180Y-2740870D01*
X+2000960Y-2752230D01*
X+2000960Y-2763590D01*
X+1988180Y-2774950D01*
X+1949840Y-2774950D01*
X+1937060Y-2786310D01*
X+1937060Y-2809030D01*
X+2000960Y-2809030D01*
X+2077640Y-2740870D02*
X+2052080Y-2763590D01*
X+2052080Y-2786310D01*
X+2077640Y-2809030D01*
X+2128760Y-2809030D02*
X+2128760Y-2740870D01*
X+2179880Y-2740870D01*
X+2205440Y-2763590D01*
X+2205440Y-2786310D01*
X+2179880Y-2809030D01*
X+2128760Y-2809030D01*
X+2231000Y-2763590D02*
X+2256560Y-2740870D01*
X+2282120Y-2740870D01*
X+2307680Y-2763590D01*
X+2307680Y-2786310D01*
X+2282120Y-2809030D01*
X+2256560Y-2809030D01*
X+2231000Y-2786310D01*
X+2231000Y-2763590D01*
X+2333240Y-2740870D02*
X+2333240Y-2809030D01*
X+2371580Y-2774950D01*
X+2409920Y-2809030D01*
X+2409920Y-2740870D01*
X+2435480Y-2809030D02*
X+2435480Y-2740870D01*
X+2512160Y-2809030D01*
X+2512160Y-2740870D01*
X+2576060Y-2740870D02*
X+2601620Y-2763590D01*
X+2601620Y-2786310D01*
X+2576060Y-2809030D01*
D22*
X+1024500Y-2062480D02*
X+1913500Y-2062480D01*
X+1913500Y-1036320D01*
X+1024500Y-1036320D01*
X+1024500Y-2062480D01*
D32*
X+1850000Y-1930400D02*
X+1850000Y-1930400D01*
D49*
X+1390470Y-1958360D02*
X+1390470Y-1881680D01*
X+1390470Y-1920020D02*
X+1458630Y-1920020D01*
X+1401830Y-1843340D02*
X+1390470Y-1830560D01*
X+1390470Y-1792220D01*
X+1401830Y-1779440D01*
X+1413190Y-1779440D01*
X+1424550Y-1792220D01*
X+1435910Y-1779440D01*
X+1447270Y-1779440D01*
X+1458630Y-1792220D01*
X+1458630Y-1830560D01*
X+1447270Y-1843340D01*
X+1424550Y-1817780D02*
X+1424550Y-1792220D01*
X+1390470Y-1702760D02*
X+1413190Y-1728320D01*
X+1435910Y-1728320D01*
X+1458630Y-1702760D01*
X+1390470Y-1651640D02*
X+1390470Y-1574960D01*
X+1390470Y-1613300D02*
X+1458630Y-1613300D01*
X+1458630Y-1472720D02*
X+1458630Y-1549400D01*
X+1390470Y-1549400D01*
X+1390470Y-1472720D01*
X+1424550Y-1549400D02*
X+1424550Y-1498280D01*
X+1458630Y-1447160D02*
X+1390470Y-1447160D01*
X+1424550Y-1408820D01*
X+1390470Y-1370480D01*
X+1458630Y-1370480D01*
X+1458630Y-1344920D02*
X+1390470Y-1344920D01*
X+1390470Y-1281020D01*
X+1401830Y-1268240D01*
X+1413190Y-1268240D01*
X+1424550Y-1281020D01*
X+1424550Y-1344920D01*
X+1390470Y-1204340D02*
X+1413190Y-1178780D01*
X+1435910Y-1178780D01*
X+1458630Y-1204340D01*
D22*
X-7862580Y-2665980D02*
X-7280920Y-2665980D01*
X-7280920Y-2084320D01*
X-7862580Y-2084320D01*
X-7862580Y-2665980D01*
D46*
X-7540000Y-2216400D02*
X-7540000Y-2216400D01*
D50*
X-7817076Y-2443337D02*
X-7817076Y-2479682D01*
X-7776189Y-2479682D01*
X-7721672Y-2479682D02*
X-7762559Y-2479682D01*
X-7762559Y-2443337D01*
X-7721672Y-2443337D01*
X-7762559Y-2461510D02*
X-7735301Y-2461510D01*
X-7708042Y-2479682D02*
X-7708042Y-2443337D01*
X-7680784Y-2443337D01*
X-7667155Y-2455452D01*
X-7667155Y-2467567D01*
X-7680784Y-2479682D01*
X-7708042Y-2479682D01*
X-7558121Y-2473625D02*
X-7564935Y-2479682D01*
X-7585379Y-2479682D01*
X-7599008Y-2467567D01*
X-7599008Y-2455452D01*
X-7585379Y-2443337D01*
X-7564935Y-2443337D01*
X-7558121Y-2449395D01*
X-7544491Y-2455452D02*
X-7530862Y-2443337D01*
X-7517233Y-2443337D01*
X-7503604Y-2455452D01*
X-7503604Y-2467567D01*
X-7517233Y-2479682D01*
X-7530862Y-2479682D01*
X-7544491Y-2467567D01*
X-7544491Y-2455452D01*
X-7489974Y-2443337D02*
X-7489974Y-2473625D01*
X-7483160Y-2479682D01*
X-7455901Y-2479682D01*
X-7449087Y-2473625D01*
X-7449087Y-2443337D01*
X-7435457Y-2479682D02*
X-7435457Y-2443337D01*
X-7394570Y-2479682D01*
X-7394570Y-2443337D01*
X-7380940Y-2443337D02*
X-7340053Y-2443337D01*
X-7360497Y-2443337D02*
X-7360497Y-2479682D01*
D22*
X-8035580Y-4129480D02*
X-7453920Y-4129480D01*
X-7453920Y-3547820D01*
X-8035580Y-3547820D01*
X-8035580Y-4129480D01*
D46*
X-7586000Y-3870400D02*
X-7586000Y-3870400D01*
D51*
X-7851455Y-4082794D02*
X-7810764Y-4082794D01*
X-7810764Y-4037017D01*
X-7810764Y-3975981D02*
X-7810764Y-4021758D01*
X-7851455Y-4021758D01*
X-7851455Y-3975981D01*
X-7831110Y-4021758D02*
X-7831110Y-3991240D01*
X-7810764Y-3960722D02*
X-7851455Y-3960722D01*
X-7851455Y-3930204D01*
X-7837891Y-3914945D01*
X-7824328Y-3914945D01*
X-7810764Y-3930204D01*
X-7810764Y-3960722D01*
X-7851455Y-3838650D02*
X-7851455Y-3792873D01*
X-7851455Y-3815762D02*
X-7810764Y-3815762D01*
X-7810764Y-3731837D02*
X-7810764Y-3777614D01*
X-7851455Y-3777614D01*
X-7851455Y-3731837D01*
X-7831110Y-3777614D02*
X-7831110Y-3747096D01*
X-7810764Y-3716578D02*
X-7851455Y-3716578D01*
X-7831110Y-3693690D01*
X-7851455Y-3670801D01*
X-7810764Y-3670801D01*
X-7810764Y-3655542D02*
X-7851455Y-3655542D01*
X-7851455Y-3617395D01*
X-7844673Y-3609765D01*
X-7837891Y-3609765D01*
X-7831110Y-3617395D01*
X-7831110Y-3655542D01*
D22*
X+4301100Y+774700D02*
X+4478900Y+774700D01*
X+4478900Y+1968500D01*
X+4301100Y+1968500D01*
X+4301100Y+774700D01*
D73*
X+4390000Y+1879600D02*
X+4390000Y+1879600D01*
D30*
X+4425204Y+1098146D02*
X+4354796Y+1098146D01*
X+4354796Y+1164153D01*
X+4366531Y+1177355D01*
X+4378265Y+1177355D01*
X+4390000Y+1164153D01*
X+4390000Y+1098146D01*
X+4390000Y+1164153D02*
X+4401735Y+1177355D01*
X+4425204Y+1177355D01*
X+4378265Y+1230161D02*
X+4354796Y+1256564D01*
X+4425204Y+1256564D01*
X+4354796Y+1309370D02*
X+4413469Y+1309370D01*
X+4425204Y+1322571D01*
X+4425204Y+1375377D01*
X+4413469Y+1388579D01*
X+4354796Y+1388579D01*
X+4425204Y+1414982D02*
X+4354796Y+1414982D01*
X+4354796Y+1480989D01*
X+4366531Y+1494191D01*
X+4378265Y+1494191D01*
X+4390000Y+1480989D01*
X+4390000Y+1414982D01*
D22*
X+3031100Y+774700D02*
X+3208900Y+774700D01*
X+3208900Y+1968500D01*
X+3031100Y+1968500D01*
X+3031100Y+774700D01*
D73*
X+3120000Y+1879600D02*
X+3120000Y+1879600D01*
D30*
X+3155204Y+1098146D02*
X+3084796Y+1098146D01*
X+3084796Y+1164153D01*
X+3096531Y+1177355D01*
X+3108265Y+1177355D01*
X+3120000Y+1164153D01*
X+3120000Y+1098146D01*
X+3120000Y+1164153D02*
X+3131735Y+1177355D01*
X+3155204Y+1177355D01*
X+3096531Y+1216959D02*
X+3084796Y+1230161D01*
X+3084796Y+1269765D01*
X+3096531Y+1282967D01*
X+3108265Y+1282967D01*
X+3120000Y+1269765D01*
X+3120000Y+1230161D01*
X+3131735Y+1216959D01*
X+3155204Y+1216959D01*
X+3155204Y+1282967D01*
X+3084796Y+1309370D02*
X+3143469Y+1309370D01*
X+3155204Y+1322571D01*
X+3155204Y+1375377D01*
X+3143469Y+1388579D01*
X+3084796Y+1388579D01*
X+3155204Y+1414982D02*
X+3084796Y+1414982D01*
X+3084796Y+1480989D01*
X+3096531Y+1494191D01*
X+3108265Y+1494191D01*
X+3120000Y+1480989D01*
X+3120000Y+1414982D01*
D22*
X+1761100Y+774700D02*
X+1938900Y+774700D01*
X+1938900Y+1968500D01*
X+1761100Y+1968500D01*
X+1761100Y+774700D01*
D73*
X+1850000Y+1879600D02*
X+1850000Y+1879600D01*
D30*
X+1885204Y+992534D02*
X+1814796Y+992534D01*
X+1814796Y+1058541D01*
X+1826531Y+1071743D01*
X+1838265Y+1071743D01*
X+1850000Y+1058541D01*
X+1850000Y+992534D01*
X+1850000Y+1058541D02*
X+1861735Y+1071743D01*
X+1885204Y+1071743D01*
X+1826531Y+1111347D02*
X+1814796Y+1124549D01*
X+1814796Y+1164153D01*
X+1826531Y+1177355D01*
X+1838265Y+1177355D01*
X+1850000Y+1164153D01*
X+1861735Y+1177355D01*
X+1873469Y+1177355D01*
X+1885204Y+1164153D01*
X+1885204Y+1124549D01*
X+1873469Y+1111347D01*
X+1850000Y+1137750D02*
X+1850000Y+1164153D01*
X+1885204Y+1203758D02*
X+1814796Y+1203758D01*
X+1814796Y+1256564D01*
X+1838265Y+1282967D01*
X+1861735Y+1282967D01*
X+1885204Y+1256564D01*
X+1885204Y+1203758D01*
X+1838265Y+1309370D02*
X+1814796Y+1335773D01*
X+1814796Y+1362176D01*
X+1838265Y+1388579D01*
X+1861735Y+1388579D01*
X+1885204Y+1362176D01*
X+1885204Y+1335773D01*
X+1861735Y+1309370D01*
X+1838265Y+1309370D01*
X+1814796Y+1414982D02*
X+1885204Y+1414982D01*
X+1850000Y+1454586D01*
X+1885204Y+1494191D01*
X+1814796Y+1494191D01*
X+1885204Y+1520594D02*
X+1814796Y+1520594D01*
X+1885204Y+1599803D01*
X+1814796Y+1599803D01*
D22*
X+491100Y+774700D02*
X+668900Y+774700D01*
X+668900Y+1968500D01*
X+491100Y+1968500D01*
X+491100Y+774700D01*
D73*
X+580000Y+1879600D02*
X+580000Y+1879600D01*
D30*
X+615204Y+992534D02*
X+544796Y+992534D01*
X+544796Y+1058541D01*
X+556531Y+1071743D01*
X+568265Y+1071743D01*
X+580000Y+1058541D01*
X+580000Y+992534D01*
X+580000Y+1058541D02*
X+591735Y+1071743D01*
X+615204Y+1071743D01*
X+591735Y+1177355D02*
X+591735Y+1098146D01*
X+544796Y+1150952D01*
X+615204Y+1150952D01*
X+615204Y+1203758D02*
X+544796Y+1203758D01*
X+544796Y+1256564D01*
X+568265Y+1282967D01*
X+591735Y+1282967D01*
X+615204Y+1256564D01*
X+615204Y+1203758D01*
X+568265Y+1309370D02*
X+544796Y+1335773D01*
X+544796Y+1362176D01*
X+568265Y+1388579D01*
X+591735Y+1388579D01*
X+615204Y+1362176D01*
X+615204Y+1335773D01*
X+591735Y+1309370D01*
X+568265Y+1309370D01*
X+544796Y+1414982D02*
X+615204Y+1414982D01*
X+580000Y+1454586D01*
X+615204Y+1494191D01*
X+544796Y+1494191D01*
X+615204Y+1520594D02*
X+544796Y+1520594D01*
X+615204Y+1599803D01*
X+544796Y+1599803D01*
D22*
X+5571100Y-495300D02*
X+5748900Y-495300D01*
X+5748900Y+698500D01*
X+5571100Y+698500D01*
X+5571100Y-495300D01*
D73*
X+5660000Y+609600D02*
X+5660000Y+609600D01*
D52*
X+5682696Y-437253D02*
X+5637303Y-437253D01*
X+5637303Y-394698D01*
X+5644869Y-386187D01*
X+5652434Y-386187D01*
X+5660000Y-394698D01*
X+5660000Y-437253D01*
X+5660000Y-394698D02*
X+5667565Y-386187D01*
X+5682696Y-386187D01*
X+5644869Y-318098D02*
X+5637303Y-326609D01*
X+5637303Y-352142D01*
X+5644869Y-360653D01*
X+5675131Y-360653D01*
X+5682696Y-352142D01*
X+5682696Y-326609D01*
X+5675131Y-318098D01*
X+5667565Y-318098D01*
X+5660000Y-326609D01*
X+5660000Y-360653D01*
X+5637303Y-267031D02*
X+5652434Y-284053D01*
X+5667565Y-284053D01*
X+5682696Y-267031D01*
X+5637303Y-232986D02*
X+5637303Y-181920D01*
X+5637303Y-207453D02*
X+5682696Y-207453D01*
X+5682696Y-113831D02*
X+5682696Y-164897D01*
X+5637303Y-164897D01*
X+5637303Y-113831D01*
X+5660000Y-164897D02*
X+5660000Y-130853D01*
X+5682696Y-96808D02*
X+5637303Y-96808D01*
X+5660000Y-71275D01*
X+5637303Y-45742D01*
X+5682696Y-45742D01*
X+5682696Y-28719D02*
X+5637303Y-28719D01*
X+5637303Y+13836D01*
X+5644869Y+22347D01*
X+5652434Y+22347D01*
X+5660000Y+13836D01*
X+5660000Y-28719D01*
X+5637303Y+107459D02*
X+5637303Y+158525D01*
X+5637303Y+132992D02*
X+5682696Y+132992D01*
X+5637303Y+184059D02*
X+5637303Y+218103D01*
X+5637303Y+201081D02*
X+5682696Y+201081D01*
X+5682696Y+184059D02*
X+5682696Y+218103D01*
X+5682696Y+243637D02*
X+5637303Y+243637D01*
X+5660000Y+269170D01*
X+5637303Y+294703D01*
X+5682696Y+294703D01*
X+5682696Y+362792D02*
X+5682696Y+311726D01*
X+5637303Y+311726D01*
X+5637303Y+362792D01*
X+5660000Y+311726D02*
X+5660000Y+345770D01*
X+5682696Y+379815D02*
X+5637303Y+379815D01*
X+5637303Y+422370D01*
X+5644869Y+430881D01*
X+5652434Y+430881D01*
X+5660000Y+422370D01*
X+5660000Y+379815D01*
X+5660000Y+422370D02*
X+5667565Y+430881D01*
X+5682696Y+430881D01*
X+5637303Y+473437D02*
X+5652434Y+490459D01*
X+5667565Y+490459D01*
X+5682696Y+473437D01*
D22*
X+4555100Y-2019300D02*
X+5748900Y-2019300D01*
X+5748900Y-1841500D01*
X+4555100Y-1841500D01*
X+4555100Y-2019300D01*
D73*
X+5660000Y-1930400D02*
X+5660000Y-1930400D01*
D52*
X+4613147Y-1953096D02*
X+4613147Y-1907703D01*
X+4655702Y-1907703D01*
X+4664213Y-1915269D01*
X+4664213Y-1922834D01*
X+4655702Y-1930400D01*
X+4613147Y-1930400D01*
X+4655702Y-1930400D02*
X+4664213Y-1937965D01*
X+4664213Y-1953096D01*
X+4689747Y-1907703D02*
X+4732302Y-1907703D01*
X+4732302Y-1915269D01*
X+4689747Y-1953096D01*
X+4783369Y-1907703D02*
X+4766347Y-1922834D01*
X+4766347Y-1937965D01*
X+4783369Y-1953096D01*
X+4817414Y-1907703D02*
X+4868480Y-1907703D01*
X+4842947Y-1907703D02*
X+4842947Y-1953096D01*
X+4936569Y-1953096D02*
X+4885503Y-1953096D01*
X+4885503Y-1907703D01*
X+4936569Y-1907703D01*
X+4885503Y-1930400D02*
X+4919547Y-1930400D01*
X+4953592Y-1953096D02*
X+4953592Y-1907703D01*
X+4979125Y-1930400D01*
X+5004658Y-1907703D01*
X+5004658Y-1953096D01*
X+5021681Y-1953096D02*
X+5021681Y-1907703D01*
X+5064236Y-1907703D01*
X+5072747Y-1915269D01*
X+5072747Y-1922834D01*
X+5064236Y-1930400D01*
X+5021681Y-1930400D01*
X+5157859Y-1907703D02*
X+5208925Y-1907703D01*
X+5183392Y-1907703D02*
X+5183392Y-1953096D01*
X+5234459Y-1907703D02*
X+5268503Y-1907703D01*
X+5251481Y-1907703D02*
X+5251481Y-1953096D01*
X+5234459Y-1953096D02*
X+5268503Y-1953096D01*
X+5294037Y-1953096D02*
X+5294037Y-1907703D01*
X+5319570Y-1930400D01*
X+5345103Y-1907703D01*
X+5345103Y-1953096D01*
X+5413192Y-1953096D02*
X+5362126Y-1953096D01*
X+5362126Y-1907703D01*
X+5413192Y-1907703D01*
X+5362126Y-1930400D02*
X+5396170Y-1930400D01*
X+5430215Y-1953096D02*
X+5430215Y-1907703D01*
X+5472770Y-1907703D01*
X+5481281Y-1915269D01*
X+5481281Y-1922834D01*
X+5472770Y-1930400D01*
X+5430215Y-1930400D01*
X+5472770Y-1930400D02*
X+5481281Y-1937965D01*
X+5481281Y-1953096D01*
X+5523837Y-1907703D02*
X+5540859Y-1922834D01*
X+5540859Y-1937965D01*
X+5523837Y-1953096D01*
D22*
X+4257920Y-792480D02*
X+5030080Y-792480D01*
X+5030080Y-528320D01*
X+4257920Y-528320D01*
X+4257920Y-792480D01*
D73*
X+4390000Y-660400D02*
X+4390000Y-660400D01*
D36*
X+4560656Y-690118D02*
X+4543939Y-704977D01*
X+4493790Y-704977D01*
X+4460358Y-675259D01*
X+4460358Y-645541D01*
X+4493790Y-615823D01*
X+4543939Y-615823D01*
X+4560656Y-630682D01*
X+4627521Y-645541D02*
X+4660954Y-615823D01*
X+4660954Y-704977D01*
X+4727820Y-615823D02*
X+4727820Y-690118D01*
X+4744536Y-704977D01*
X+4811401Y-704977D01*
X+4828118Y-690118D01*
X+4828118Y-615823D01*
X+4861551Y-704977D02*
X+4861551Y-615823D01*
X+4945132Y-615823D01*
X+4961849Y-630682D01*
X+4961849Y-645541D01*
X+4945132Y-660400D01*
X+4861551Y-660400D01*
D22*
X+5019920Y+3017520D02*
X+5792080Y+3017520D01*
X+5792080Y+3281680D01*
X+5019920Y+3281680D01*
X+5019920Y+3017520D01*
D73*
X+5660000Y+3149600D02*
X+5660000Y+3149600D01*
D36*
X+5155016Y+3119882D02*
X+5138299Y+3105023D01*
X+5088150Y+3105023D01*
X+5054718Y+3134741D01*
X+5054718Y+3164459D01*
X+5088150Y+3194177D01*
X+5138299Y+3194177D01*
X+5155016Y+3179318D01*
X+5205165Y+3179318D02*
X+5221881Y+3194177D01*
X+5272030Y+3194177D01*
X+5288747Y+3179318D01*
X+5288747Y+3164459D01*
X+5272030Y+3149600D01*
X+5221881Y+3149600D01*
X+5205165Y+3134741D01*
X+5205165Y+3105023D01*
X+5288747Y+3105023D01*
X+5322180Y+3194177D02*
X+5322180Y+3119882D01*
X+5338896Y+3105023D01*
X+5405761Y+3105023D01*
X+5422478Y+3119882D01*
X+5422478Y+3194177D01*
X+5455911Y+3105023D02*
X+5455911Y+3194177D01*
X+5539492Y+3194177D01*
X+5556209Y+3179318D01*
X+5556209Y+3164459D01*
X+5539492Y+3149600D01*
X+5455911Y+3149600D01*
D22*
X+5019920Y-3332480D02*
X+5792080Y-3332480D01*
X+5792080Y-3068320D01*
X+5019920Y-3068320D01*
X+5019920Y-3332480D01*
D73*
X+5660000Y-3200400D02*
X+5660000Y-3200400D01*
D53*
X+5121583Y-3220212D02*
X+5110439Y-3230118D01*
X+5077006Y-3230118D01*
X+5054718Y-3210306D01*
X+5054718Y-3190494D01*
X+5077006Y-3170682D01*
X+5110439Y-3170682D01*
X+5121583Y-3180588D01*
X+5155016Y-3180588D02*
X+5166160Y-3170682D01*
X+5199593Y-3170682D01*
X+5210737Y-3180588D01*
X+5210737Y-3190494D01*
X+5199593Y-3200400D01*
X+5210737Y-3210306D01*
X+5210737Y-3220212D01*
X+5199593Y-3230118D01*
X+5166160Y-3230118D01*
X+5155016Y-3220212D01*
X+5177304Y-3200400D02*
X+5199593Y-3200400D01*
X+5233026Y-3230118D02*
X+5233026Y-3170682D01*
X+5277603Y-3170682D01*
X+5299891Y-3190494D01*
X+5299891Y-3210306D01*
X+5277603Y-3230118D01*
X+5233026Y-3230118D01*
X+5322180Y-3190494D02*
X+5344468Y-3170682D01*
X+5366757Y-3170682D01*
X+5389045Y-3190494D01*
X+5389045Y-3210306D01*
X+5366757Y-3230118D01*
X+5344468Y-3230118D01*
X+5322180Y-3210306D01*
X+5322180Y-3190494D01*
X+5411334Y-3170682D02*
X+5411334Y-3230118D01*
X+5444766Y-3200400D01*
X+5478199Y-3230118D01*
X+5478199Y-3170682D01*
X+5500488Y-3230118D02*
X+5500488Y-3170682D01*
X+5567353Y-3230118D01*
X+5567353Y-3170682D01*
D22*
X+2987920Y-3332480D02*
X+3760080Y-3332480D01*
X+3760080Y-3068320D01*
X+2987920Y-3068320D01*
X+2987920Y-3332480D01*
D73*
X+3120000Y-3200400D02*
X+3120000Y-3200400D01*
D53*
X+3257223Y-3220212D02*
X+3246079Y-3230118D01*
X+3212646Y-3230118D01*
X+3190358Y-3210306D01*
X+3190358Y-3190494D01*
X+3212646Y-3170682D01*
X+3246079Y-3170682D01*
X+3257223Y-3180588D01*
X+3346377Y-3210306D02*
X+3279512Y-3210306D01*
X+3324089Y-3170682D01*
X+3324089Y-3230118D01*
X+3368666Y-3230118D02*
X+3368666Y-3170682D01*
X+3413243Y-3170682D01*
X+3435531Y-3190494D01*
X+3435531Y-3210306D01*
X+3413243Y-3230118D01*
X+3368666Y-3230118D01*
X+3457820Y-3190494D02*
X+3480108Y-3170682D01*
X+3502397Y-3170682D01*
X+3524685Y-3190494D01*
X+3524685Y-3210306D01*
X+3502397Y-3230118D01*
X+3480108Y-3230118D01*
X+3457820Y-3210306D01*
X+3457820Y-3190494D01*
X+3546974Y-3170682D02*
X+3546974Y-3230118D01*
X+3580406Y-3200400D01*
X+3613839Y-3230118D01*
X+3613839Y-3170682D01*
X+3636128Y-3230118D02*
X+3636128Y-3170682D01*
X+3702993Y-3230118D01*
X+3702993Y-3170682D01*
D22*
X+5527920Y-4602480D02*
X+6300080Y-4602480D01*
X+6300080Y-4338320D01*
X+5527920Y-4338320D01*
X+5527920Y-4602480D01*
D73*
X+5660000Y-4470400D02*
X+5660000Y-4470400D01*
D54*
X+5759020Y-4478891D02*
X+5754244Y-4483137D01*
X+5739916Y-4483137D01*
X+5730364Y-4474646D01*
X+5730364Y-4466155D01*
X+5739916Y-4457664D01*
X+5754244Y-4457664D01*
X+5759020Y-4461910D01*
X+5797228Y-4457664D02*
X+5773348Y-4457664D01*
X+5773348Y-4466155D01*
X+5792452Y-4466155D01*
X+5797228Y-4470400D01*
X+5797228Y-4478891D01*
X+5792452Y-4483137D01*
X+5778124Y-4483137D01*
X+5773348Y-4478891D01*
X+5825884Y-4457664D02*
X+5816332Y-4466155D01*
X+5816332Y-4474646D01*
X+5825884Y-4483137D01*
X+5844988Y-4457664D02*
X+5873644Y-4457664D01*
X+5859316Y-4457664D02*
X+5859316Y-4483137D01*
X+5911852Y-4483137D02*
X+5883196Y-4483137D01*
X+5883196Y-4457664D01*
X+5911852Y-4457664D01*
X+5883196Y-4470400D02*
X+5902300Y-4470400D01*
X+5921404Y-4483137D02*
X+5921404Y-4457664D01*
X+5935732Y-4470400D01*
X+5950060Y-4457664D01*
X+5950060Y-4483137D01*
X+5959612Y-4483137D02*
X+5959612Y-4457664D01*
X+5983492Y-4457664D01*
X+5988268Y-4461910D01*
X+5988268Y-4466155D01*
X+5983492Y-4470400D01*
X+5959612Y-4470400D01*
X+6036028Y-4457664D02*
X+6064684Y-4457664D01*
X+6050356Y-4457664D02*
X+6050356Y-4483137D01*
X+6079012Y-4457664D02*
X+6098116Y-4457664D01*
X+6088564Y-4457664D02*
X+6088564Y-4483137D01*
X+6079012Y-4483137D02*
X+6098116Y-4483137D01*
X+6112444Y-4483137D02*
X+6112444Y-4457664D01*
X+6126772Y-4470400D01*
X+6141100Y-4457664D01*
X+6141100Y-4483137D01*
X+6179308Y-4483137D02*
X+6150652Y-4483137D01*
X+6150652Y-4457664D01*
X+6179308Y-4457664D01*
X+6150652Y-4470400D02*
X+6169756Y-4470400D01*
X+6188860Y-4483137D02*
X+6188860Y-4457664D01*
X+6212740Y-4457664D01*
X+6217516Y-4461910D01*
X+6217516Y-4466155D01*
X+6212740Y-4470400D01*
X+6188860Y-4470400D01*
X+6212740Y-4470400D02*
X+6217516Y-4474646D01*
X+6217516Y-4483137D01*
X+6241396Y-4457664D02*
X+6250948Y-4466155D01*
X+6250948Y-4474646D01*
X+6241396Y-4483137D01*
D22*
X+2479920Y-2062480D02*
X+3252080Y-2062480D01*
X+3252080Y-1798320D01*
X+2479920Y-1798320D01*
X+2479920Y-2062480D01*
D73*
X+3120000Y-1930400D02*
X+3120000Y-1930400D01*
D54*
X+2543380Y-1938891D02*
X+2538604Y-1943137D01*
X+2524276Y-1943137D01*
X+2514724Y-1934646D01*
X+2514724Y-1926155D01*
X+2524276Y-1917664D01*
X+2538604Y-1917664D01*
X+2543380Y-1921910D01*
X+2581588Y-1921910D02*
X+2576812Y-1917664D01*
X+2562484Y-1917664D01*
X+2557708Y-1921910D01*
X+2557708Y-1938891D01*
X+2562484Y-1943137D01*
X+2576812Y-1943137D01*
X+2581588Y-1938891D01*
X+2581588Y-1934646D01*
X+2576812Y-1930400D01*
X+2557708Y-1930400D01*
X+2610244Y-1917664D02*
X+2600692Y-1926155D01*
X+2600692Y-1934646D01*
X+2610244Y-1943137D01*
X+2629348Y-1917664D02*
X+2658004Y-1917664D01*
X+2643676Y-1917664D02*
X+2643676Y-1943137D01*
X+2696212Y-1943137D02*
X+2667556Y-1943137D01*
X+2667556Y-1917664D01*
X+2696212Y-1917664D01*
X+2667556Y-1930400D02*
X+2686660Y-1930400D01*
X+2705764Y-1943137D02*
X+2705764Y-1917664D01*
X+2720092Y-1930400D01*
X+2734420Y-1917664D01*
X+2734420Y-1943137D01*
X+2743972Y-1943137D02*
X+2743972Y-1917664D01*
X+2767852Y-1917664D01*
X+2772628Y-1921910D01*
X+2772628Y-1926155D01*
X+2767852Y-1930400D01*
X+2743972Y-1930400D01*
X+2820388Y-1917664D02*
X+2849044Y-1917664D01*
X+2834716Y-1917664D02*
X+2834716Y-1943137D01*
X+2863372Y-1917664D02*
X+2882476Y-1917664D01*
X+2872924Y-1917664D02*
X+2872924Y-1943137D01*
X+2863372Y-1943137D02*
X+2882476Y-1943137D01*
X+2896804Y-1943137D02*
X+2896804Y-1917664D01*
X+2911132Y-1930400D01*
X+2925460Y-1917664D01*
X+2925460Y-1943137D01*
X+2963668Y-1943137D02*
X+2935012Y-1943137D01*
X+2935012Y-1917664D01*
X+2963668Y-1917664D01*
X+2935012Y-1930400D02*
X+2954116Y-1930400D01*
X+2973220Y-1943137D02*
X+2973220Y-1917664D01*
X+2997100Y-1917664D01*
X+3001876Y-1921910D01*
X+3001876Y-1926155D01*
X+2997100Y-1930400D01*
X+2973220Y-1930400D01*
X+2997100Y-1930400D02*
X+3001876Y-1934646D01*
X+3001876Y-1943137D01*
X+3025756Y-1917664D02*
X+3035308Y-1926155D01*
X+3035308Y-1934646D01*
X+3025756Y-1943137D01*
D22*
X+6867920Y-1442480D02*
X+7132080Y-1442480D01*
X+7132080Y-1178320D01*
X+6867920Y-1178320D01*
X+6867920Y-1442480D01*
D55*
X+6923801Y-1318867D02*
X+6942851Y-1318867D01*
X+6942851Y-1335800D01*
X+6904751Y-1335800D01*
X+6885702Y-1318867D01*
X+6885702Y-1301934D01*
X+6904751Y-1285001D01*
X+6933326Y-1285001D01*
X+6942851Y-1293467D01*
X+6961901Y-1335800D02*
X+6961901Y-1285001D01*
X+7019050Y-1335800D01*
X+7019050Y-1285001D01*
X+7038100Y-1335800D02*
X+7038100Y-1285001D01*
X+7076199Y-1285001D01*
X+7095249Y-1301934D01*
X+7095249Y-1318867D01*
X+7076199Y-1335800D01*
X+7038100Y-1335800D01*
D22*
X+6797920Y-792480D02*
X+7062080Y-792480D01*
X+7062080Y-528320D01*
X+6797920Y-528320D01*
X+6797920Y-792480D01*
D55*
X+6815702Y-635001D02*
X+6815702Y-660400D01*
X+6844276Y-685800D01*
X+6872851Y-660400D01*
X+6872851Y-635001D01*
X+6949050Y-677334D02*
X+6939525Y-685800D01*
X+6910950Y-685800D01*
X+6891901Y-668867D01*
X+6891901Y-651934D01*
X+6910950Y-635001D01*
X+6939525Y-635001D01*
X+6949050Y-643467D01*
X+7025249Y-677334D02*
X+7015724Y-685800D01*
X+6987149Y-685800D01*
X+6968100Y-668867D01*
X+6968100Y-651934D01*
X+6987149Y-635001D01*
X+7015724Y-635001D01*
X+7025249Y-643467D01*
M02*
