G04 PROTEUS GERBER X2 FILE*
%TF.GenerationSoftware,Labcenter,Proteus,8.16-SP3-Build36097*%
%TF.CreationDate,2024-05-06T12:20:01+00:00*%
%TF.FileFunction,Soldermask,Bot*%
%TF.FilePolarity,Negative*%
%TF.Part,Single*%
%TF.SameCoordinates,{807a0646-054e-4b8c-a3a0-1762012dc6c7}*%
%FSLAX45Y45*%
%MOMM*%
G01*
%TA.AperFunction,Material*%
%ADD23C,1.016000*%
%TA.AperFunction,Material*%
%ADD24C,2.032000*%
%AMPPAD017*
4,1,36,
-0.635000,0.762000,
0.635000,0.762000,
0.660590,0.759420,
0.684430,0.752020,
0.706000,0.740310,
0.724800,0.724800,
0.740310,0.706000,
0.752020,0.684430,
0.759420,0.660590,
0.762000,0.635000,
0.762000,-0.635000,
0.759420,-0.660590,
0.752020,-0.684430,
0.740310,-0.706000,
0.724800,-0.724800,
0.706000,-0.740310,
0.684430,-0.752020,
0.660590,-0.759420,
0.635000,-0.762000,
-0.635000,-0.762000,
-0.660590,-0.759420,
-0.684430,-0.752020,
-0.706000,-0.740310,
-0.724800,-0.724800,
-0.740310,-0.706000,
-0.752020,-0.684430,
-0.759420,-0.660590,
-0.762000,-0.635000,
-0.762000,0.635000,
-0.759420,0.660590,
-0.752020,0.684430,
-0.740310,0.706000,
-0.724800,0.724800,
-0.706000,0.740310,
-0.684430,0.752020,
-0.660590,0.759420,
-0.635000,0.762000,
0*%
%TA.AperFunction,Material*%
%ADD25PPAD017*%
%ADD26C,1.524000*%
%AMPPAD019*
4,1,8,
0.509800,-1.397000,
-0.509800,-1.397000,
-0.889000,-1.017800,
-0.889000,1.017800,
-0.509800,1.397000,
0.509800,1.397000,
0.889000,1.017800,
0.889000,-1.017800,
0.509800,-1.397000,
0*%
%TA.AperFunction,Material*%
%ADD27PPAD019*%
%TA.AperFunction,Material*%
%ADD28C,4.064000*%
%TA.AperFunction,Material*%
%ADD29C,2.286000*%
%AMPPAD022*
4,1,36,
-1.143000,-1.016000,
-1.143000,1.016000,
-1.140420,1.041590,
-1.133020,1.065430,
-1.121310,1.087000,
-1.105800,1.105800,
-1.087000,1.121310,
-1.065430,1.133020,
-1.041590,1.140420,
-1.016000,1.143000,
1.016000,1.143000,
1.041590,1.140420,
1.065430,1.133020,
1.087000,1.121310,
1.105800,1.105800,
1.121310,1.087000,
1.133020,1.065430,
1.140420,1.041590,
1.143000,1.016000,
1.143000,-1.016000,
1.140420,-1.041590,
1.133020,-1.065430,
1.121310,-1.087000,
1.105800,-1.105800,
1.087000,-1.121310,
1.065430,-1.133020,
1.041590,-1.140420,
1.016000,-1.143000,
-1.016000,-1.143000,
-1.041590,-1.140420,
-1.065430,-1.133020,
-1.087000,-1.121310,
-1.105800,-1.105800,
-1.121310,-1.087000,
-1.133020,-1.065430,
-1.140420,-1.041590,
-1.143000,-1.016000,
0*%
%TA.AperFunction,Material*%
%ADD72PPAD022*%
%TA.AperFunction,Profile*%
%ADD21C,0.101600*%
%TD.AperFunction*%
D23*
X+3657600Y-2133600D03*
X-7086600Y-2209800D03*
X+5152000Y-711200D03*
X-1981200Y-1295400D03*
X-6096000Y-990600D03*
X+2438400Y+3429000D03*
X-1981200Y-5486400D03*
X-4648200Y-1524000D03*
X-4648200Y-3657600D03*
X+1219200Y+6096000D03*
X-1295400Y-3657600D03*
X-1219200Y-1600200D03*
X-1981200Y-3657600D03*
X+1219200Y+4775200D03*
X-5791200Y+3048000D03*
X-4876800Y+3048000D03*
X-8001000Y+5867400D03*
X-3886200Y+5867400D03*
X+1752600Y+3352800D03*
X+1752600Y+5410200D03*
X-3505200Y-1524000D03*
X-6324600Y-1676400D03*
X-7239000Y-152400D03*
X-6781800Y+304800D03*
X-7391400Y+1600200D03*
X+6324600Y-4038600D03*
X+228600Y-3276600D03*
X+1447800Y-3276600D03*
X-5486400Y+3886200D03*
X-4648200Y+3886200D03*
X-4495800Y+1219200D03*
X-4419600Y+4876800D03*
X+76200Y+6324600D03*
X-4038600Y+1828800D03*
X-6781800Y-2362200D03*
X-2209800Y-2362200D03*
X+3048000Y-1371600D03*
X+2743200Y+1143000D03*
X-914400Y+1066800D03*
X-3429000Y+1828800D03*
X+76200Y+914400D03*
X+304800Y+1752600D03*
X-457200Y+1752600D03*
X+2209800Y+2971800D03*
X+609600Y+2971800D03*
X-685800Y+2971800D03*
X+5867400Y-4114800D03*
X+4495800Y+1524000D03*
X+2743200Y+1524000D03*
X+2743200Y+2362200D03*
X+1219200Y+2133600D03*
X+838200Y+2133600D03*
X-914400Y+1752600D03*
X-1219200Y+5638800D03*
X+7239000Y+5181600D03*
X-1143000Y+5181600D03*
X-3733800Y+4191000D03*
X-8458200Y+4038600D03*
X-3276600Y+2438400D03*
X-7848600Y+2819400D03*
X-7848600Y+838200D03*
X-5257800Y-2971800D03*
X-5257800Y-2743200D03*
X+1828800Y+2743200D03*
X-2057400Y+2971800D03*
X+990600Y+1676400D03*
X-1219200Y+2362200D03*
X-1219200Y+2743200D03*
X-2286000Y+2743200D03*
X+3657600Y-533400D03*
X+3657600Y+0D03*
X+2133600Y+0D03*
X+2133600Y+2514600D03*
X-8610600Y-3657600D03*
X-8458200Y+4267200D03*
X-4038600Y+4267200D03*
X-3352800Y+3657600D03*
X+1066800Y+533400D03*
X+5410200Y+76200D03*
X-914400Y-76200D03*
X-838200Y-1600200D03*
X+4876800Y-304800D03*
X+5410200Y-457200D03*
X+6629400Y-838200D03*
X-2209800Y-4114800D03*
X-2743200Y-4114800D03*
X-2743200Y-3276600D03*
X-2250000Y-3276600D03*
X+4876800Y-1905000D03*
X+2819400Y-2971800D03*
X+1143000Y-2362200D03*
X+1295400Y-1676400D03*
X+5486400Y-5029200D03*
X+2819400Y+304800D03*
X+3886200Y-3429000D03*
X+2133600Y-3429000D03*
X+3886200Y+685800D03*
X+4495800Y-2438400D03*
X+0Y-2133600D03*
X+0Y-3657600D03*
X+1676400Y-3657600D03*
X+2057400Y-3657600D03*
X+4267200Y-3657600D03*
X+3352800Y-914400D03*
X+381000Y-2743200D03*
X+4038600Y-2743200D03*
X-7010400Y-3352800D03*
X-4267200Y+2057400D03*
X-4267200Y-3352800D03*
X-3810000Y-2133600D03*
X-5486400Y-2133600D03*
X-4267200Y+4648200D03*
X-4267200Y+3352800D03*
X-8229600Y+3352800D03*
X-8229600Y-4114800D03*
X-8839200Y-4114800D03*
X-8458200Y+4572000D03*
X-3429000Y+4419600D03*
X+2057400Y+5867400D03*
X-3276600Y-914400D03*
X-5562600Y+2286000D03*
X-4267200Y+2286000D03*
X-3276600Y+1447800D03*
X-3276600Y+838200D03*
X-3886200Y+1447800D03*
X-3733800Y+3886200D03*
X-1219200Y+76200D03*
X-3429000Y+5181600D03*
X-7315200Y+3581400D03*
X-3962400Y+3352800D03*
D24*
X-534482Y-1828882D03*
X-534482Y-2844882D03*
X-1034482Y-1828882D03*
X-1034482Y-2844882D03*
X-1500000Y-1810400D03*
X-1500000Y-2826400D03*
X-2000000Y-1810400D03*
X-2000000Y-2826400D03*
X-2500000Y-1810400D03*
X-2500000Y-2826400D03*
X-3000000Y-1810400D03*
X-3000000Y-2826400D03*
X-3500000Y-1810400D03*
X-3500000Y-2826400D03*
X-4000000Y-1810400D03*
X-4000000Y-2826400D03*
X+500000Y-4560400D03*
X+500000Y-4810400D03*
X-500000Y-4560400D03*
X-500000Y-4810400D03*
X-1500000Y-4560400D03*
X-1500000Y-4810400D03*
X-2250000Y-4560400D03*
X-2250000Y-4810400D03*
X-3250000Y-4560400D03*
X-3250000Y-4810400D03*
X-4000000Y-4560400D03*
X-4000000Y-4810400D03*
X-5000000Y-4560400D03*
X-5000000Y-4810400D03*
X-6000000Y-4560400D03*
X-6000000Y-4810400D03*
D25*
X-3230000Y+609600D03*
D26*
X-2976000Y+609600D03*
X-2722000Y+609600D03*
X-2468000Y+609600D03*
X-2214000Y+609600D03*
X-1960000Y+609600D03*
X-1706000Y+609600D03*
X-1452000Y+609600D03*
X-1198000Y+609600D03*
X-944000Y+609600D03*
X-690000Y+609600D03*
X-436000Y+609600D03*
X-182000Y+609600D03*
X+72000Y+609600D03*
X+72000Y+2133600D03*
X-182000Y+2133600D03*
X-436000Y+2133600D03*
X-690000Y+2133600D03*
X-944000Y+2133600D03*
X-1198000Y+2133600D03*
X-1452000Y+2133600D03*
X-1706000Y+2133600D03*
X-1960000Y+2133600D03*
X-2214000Y+2133600D03*
X-2468000Y+2133600D03*
X-2722000Y+2133600D03*
X-2976000Y+2133600D03*
X-3230000Y+2133600D03*
D27*
X-6532000Y-3454400D03*
X-6786000Y-3454400D03*
X-6532000Y-1930400D03*
X-6278000Y-3454400D03*
X-6278000Y-1930400D03*
X-6024000Y-1930400D03*
X-6786000Y-1930400D03*
X-5770000Y-1930400D03*
X-5770000Y-3454400D03*
X-6024000Y-3454400D03*
D25*
X-3230000Y-660400D03*
D26*
X-2976000Y-660400D03*
X-2722000Y-660400D03*
X-2468000Y-660400D03*
X-2214000Y-660400D03*
X-1960000Y-660400D03*
X-1706000Y-660400D03*
X-1452000Y-660400D03*
X-1452000Y+101600D03*
X-1706000Y+101600D03*
X-1960000Y+101600D03*
X-2214000Y+101600D03*
X-2468000Y+101600D03*
X-2722000Y+101600D03*
X-2976000Y+101600D03*
X-3230000Y+101600D03*
D25*
X-3230000Y+3149600D03*
D26*
X-2976000Y+3149600D03*
X-2722000Y+3149600D03*
X-2468000Y+3149600D03*
X-2214000Y+3149600D03*
X-1960000Y+3149600D03*
X-1706000Y+3149600D03*
X-1452000Y+3149600D03*
X-1452000Y+3911600D03*
X-1706000Y+3911600D03*
X-1960000Y+3911600D03*
X-2214000Y+3911600D03*
X-2468000Y+3911600D03*
X-2722000Y+3911600D03*
X-2976000Y+3911600D03*
X-3230000Y+3911600D03*
D25*
X-690000Y-660400D03*
D26*
X-436000Y-660400D03*
X-182000Y-660400D03*
X+72000Y-660400D03*
X+326000Y-660400D03*
X+580000Y-660400D03*
X+834000Y-660400D03*
X+1088000Y-660400D03*
X+1088000Y+101600D03*
X+834000Y+101600D03*
X+580000Y+101600D03*
X+326000Y+101600D03*
X+72000Y+101600D03*
X-182000Y+101600D03*
X-436000Y+101600D03*
X-690000Y+101600D03*
D25*
X-690000Y+3149600D03*
D26*
X-436000Y+3149600D03*
X-182000Y+3149600D03*
X+72000Y+3149600D03*
X+326000Y+3149600D03*
X+580000Y+3149600D03*
X+834000Y+3149600D03*
X+1088000Y+3149600D03*
X+1088000Y+3911600D03*
X+834000Y+3911600D03*
X+580000Y+3911600D03*
X+326000Y+3911600D03*
X+72000Y+3911600D03*
X-182000Y+3911600D03*
X-436000Y+3911600D03*
X-690000Y+3911600D03*
D25*
X-4500000Y+609600D03*
D26*
X-4500000Y+355600D03*
X-4500000Y+101600D03*
X-4500000Y-152400D03*
X-4500000Y-406400D03*
X-4500000Y-660400D03*
X-4500000Y-914400D03*
X-3738000Y-914400D03*
X-3738000Y-660400D03*
X-3738000Y-406400D03*
X-3738000Y-152400D03*
X-3738000Y+101600D03*
X-3738000Y+355600D03*
X-3738000Y+609600D03*
D25*
X-3230000Y+4419600D03*
D26*
X-2976000Y+4419600D03*
X-2722000Y+4419600D03*
X-2468000Y+4419600D03*
X-2214000Y+4419600D03*
X-1960000Y+4419600D03*
X-1706000Y+4419600D03*
X-1706000Y+5181600D03*
X-1960000Y+5181600D03*
X-2214000Y+5181600D03*
X-2468000Y+5181600D03*
X-2722000Y+5181600D03*
X-2976000Y+5181600D03*
X-3230000Y+5181600D03*
D25*
X-7040000Y-660400D03*
D26*
X-6786000Y-660400D03*
X-6532000Y-660400D03*
X-6278000Y-660400D03*
X-6024000Y-660400D03*
X-5770000Y-660400D03*
X-5516000Y-660400D03*
X-5262000Y-660400D03*
X-5262000Y+101600D03*
X-5516000Y+101600D03*
X-5770000Y+101600D03*
X-6024000Y+101600D03*
X-6278000Y+101600D03*
X-6532000Y+101600D03*
X-6786000Y+101600D03*
X-7040000Y+101600D03*
D25*
X-3230000Y+5689600D03*
D26*
X-2976000Y+5689600D03*
X-2722000Y+5689600D03*
X-2468000Y+5689600D03*
X-2214000Y+5689600D03*
X-1960000Y+5689600D03*
X-1706000Y+5689600D03*
X-1706000Y+6451600D03*
X-1960000Y+6451600D03*
X-2214000Y+6451600D03*
X-2468000Y+6451600D03*
X-2722000Y+6451600D03*
X-2976000Y+6451600D03*
X-3230000Y+6451600D03*
D25*
X-7040000Y+609600D03*
D26*
X-6786000Y+609600D03*
X-6532000Y+609600D03*
X-6278000Y+609600D03*
X-6024000Y+609600D03*
X-5770000Y+609600D03*
X-5516000Y+609600D03*
X-5516000Y+1371600D03*
X-5770000Y+1371600D03*
X-6024000Y+1371600D03*
X-6278000Y+1371600D03*
X-6532000Y+1371600D03*
X-6786000Y+1371600D03*
X-7040000Y+1371600D03*
D25*
X-7040000Y+1879600D03*
D26*
X-6786000Y+1879600D03*
X-6532000Y+1879600D03*
X-6278000Y+1879600D03*
X-6024000Y+1879600D03*
X-5770000Y+1879600D03*
X-5516000Y+1879600D03*
X-5516000Y+2641600D03*
X-5770000Y+2641600D03*
X-6024000Y+2641600D03*
X-6278000Y+2641600D03*
X-6532000Y+2641600D03*
X-6786000Y+2641600D03*
X-7040000Y+2641600D03*
D28*
X+3080000Y-4450400D03*
X+3080000Y-4958400D03*
X+4390000Y-4470400D03*
X+4390000Y-4978400D03*
D29*
X+2104000Y-4470400D03*
X+1850000Y-4470400D03*
X+1596000Y-4470400D03*
D25*
X+580000Y-1930400D03*
D26*
X+580000Y-1676400D03*
X+580000Y-1422400D03*
X+580000Y-1168400D03*
X-182000Y-1168400D03*
X-182000Y-1422400D03*
X-182000Y-1676400D03*
X-182000Y-1930400D03*
D25*
X+1850000Y-3200400D03*
D26*
X+2104000Y-3200400D03*
X+2358000Y-3200400D03*
X+2612000Y-3200400D03*
X+2612000Y-2438400D03*
X+2358000Y-2438400D03*
X+2104000Y-2438400D03*
X+1850000Y-2438400D03*
D25*
X+1850000Y-1930400D03*
D26*
X+1850000Y-1676400D03*
X+1850000Y-1422400D03*
X+1850000Y-1168400D03*
X+1088000Y-1168400D03*
X+1088000Y-1422400D03*
X+1088000Y-1676400D03*
X+1088000Y-1930400D03*
D72*
X-7540000Y-2470400D03*
X-7540000Y-2216400D03*
X-7840000Y-3870400D03*
X-7586000Y-3870400D03*
D24*
X+4390000Y+1879600D03*
X+4390000Y+863600D03*
X+3120000Y+1879600D03*
X+3120000Y+863600D03*
X+1850000Y+1879600D03*
X+1850000Y+863600D03*
X+580000Y+1879600D03*
X+580000Y+863600D03*
X+5660000Y+609600D03*
X+5660000Y-406400D03*
X+5660000Y-1930400D03*
X+4644000Y-1930400D03*
X+4390000Y-660400D03*
X+4898000Y-660400D03*
X+5660000Y+3149600D03*
X+5152000Y+3149600D03*
X+5660000Y-3200400D03*
X+5152000Y-3200400D03*
X+3120000Y-3200400D03*
X+3628000Y-3200400D03*
X+5660000Y-4470400D03*
X+6168000Y-4470400D03*
X+3120000Y-1930400D03*
X+2612000Y-1930400D03*
D29*
X+7000000Y-1310400D03*
X+6930000Y-660400D03*
D24*
X-4000000Y-4750000D03*
D21*
X-9000000Y-6310400D02*
X+7750000Y-6310400D01*
X+7750000Y+7439600D01*
X-9000000Y+7439600D01*
X-9000000Y-6310400D01*
M02*
