G04 PROTEUS GERBER X2 FILE*
%TF.GenerationSoftware,Labcenter,Proteus,8.16-SP3-Build36097*%
%TF.CreationDate,2024-05-06T12:20:01+00:00*%
%TF.FileFunction,Copper,L1,Top*%
%TF.FilePolarity,Positive*%
%TF.Part,Single*%
%TF.SameCoordinates,{807a0646-054e-4b8c-a3a0-1762012dc6c7}*%
%FSLAX45Y45*%
%MOMM*%
G01*
%TA.AperFunction,Conductor*%
%ADD10C,1.016000*%
%ADD11C,0.254000*%
%TA.AperFunction,NonConductor*%
%ADD12C,0.254000*%
%ADD13C,1.016000*%
%TA.AperFunction,ViaPad*%
%ADD14C,0.762000*%
%TA.AperFunction,ComponentPad*%
%ADD15C,1.778000*%
%TA.AperFunction,ComponentPad*%
%ADD16R,1.270000X1.270000*%
%ADD17C,1.270000*%
%AMDIL008*
4,1,8,
-0.762000,0.965200,-0.457200,1.270000,0.457200,1.270000,0.762000,0.965200,0.762000,-0.965200,
0.457200,-1.270000,-0.457200,-1.270000,-0.762000,-0.965200,-0.762000,0.965200,
0*%
%TA.AperFunction,ComponentPad*%
%ADD18DIL008*%
%TA.AperFunction,ComponentPad*%
%ADD19C,3.810000*%
%TA.AperFunction,ComponentPad*%
%ADD70C,2.032000*%
%TA.AperFunction,ComponentPad*%
%ADD71R,2.032000X2.032000*%
%TA.AperFunction,OtherPad,Unknown*%
%ADD20C,1.778000*%
%TA.AperFunction,Profile*%
%ADD21C,0.101600*%
%TD.AperFunction*%
D10*
X+5152000Y-3200400D02*
X+5384800Y-2967600D01*
X+5384800Y-2925600D01*
X+7000000Y-1310400D01*
X-5516000Y+101600D02*
X-6024000Y-406400D01*
X-6705600Y-406400D01*
X-6807200Y-304800D01*
X-7040000Y-660400D02*
X-7040000Y-304800D01*
X-6807200Y-304800D01*
X+2612000Y-1930400D02*
X+2815200Y-2133600D01*
X+3657600Y-2133600D01*
X-6807200Y-304800D02*
X-6807200Y+80400D01*
X-6786000Y+101600D01*
X+5152000Y-3200400D02*
X+3628000Y-3200400D01*
X+500000Y-4810400D02*
X-500000Y-4810400D01*
X-2250000Y-4810400D02*
X-3250000Y-4810400D01*
X-4000000Y-4810400D02*
X-5000000Y-4810400D01*
X-5069849Y-4810400D01*
X-5069850Y-4810399D01*
X-5384800Y-4810399D01*
X-5384801Y-4810400D01*
X-6000000Y-4810400D01*
X-1500000Y-4810400D02*
X-2250000Y-4810400D01*
X-3250000Y-4810400D02*
X-4000000Y-4810400D01*
X-1452000Y+101600D02*
X-1452000Y-203200D01*
X-1960000Y-203200D01*
X-1960000Y+101600D01*
X-7040000Y-660400D02*
X-7040000Y-2163200D01*
X-7086600Y-2209800D01*
X+1850000Y-3870400D02*
X+1854200Y-3866200D01*
X+1854200Y-3556000D01*
X+1850000Y-3551800D01*
X+1850000Y-3200400D01*
D11*
X-7586000Y-3870400D02*
X-5044000Y-3870400D01*
X+1850000Y-3870400D01*
X+5152000Y-3200400D02*
X+5152000Y-3350400D01*
X+4632000Y-3870400D01*
X+1850000Y-3870400D01*
X+5152000Y-3200400D02*
X+5152000Y-711200D01*
X+5152000Y+3149600D01*
D10*
X-6096000Y-990600D02*
X-5784850Y-1301750D01*
X-1987550Y-1301750D01*
X-1981200Y-1295400D01*
X+2438400Y+3429000D02*
X+2438400Y+2743200D01*
X+2133600Y+2743200D01*
X+1930400Y+2946400D01*
X+1037200Y+2946400D01*
X+834000Y+3149600D01*
X-1981200Y-3657600D02*
X-4648200Y-3657600D01*
X+1219200Y+4775200D02*
X+7010400Y+4775200D01*
X+7213600Y+4572000D01*
X+7213600Y-5283200D01*
X+7010400Y-5486400D01*
X-1981200Y-5486400D01*
X-4648200Y-1524000D02*
X-4686300Y-1485900D01*
X-5960500Y-1485900D01*
X-6786000Y-660400D01*
X+1219200Y+6096000D02*
X-2823600Y+6096000D01*
X-3230000Y+5689600D01*
X-1219200Y-1600200D02*
X-1219200Y-609600D01*
X-1422400Y-406400D01*
X-2214000Y-406400D01*
X-2214000Y+101600D01*
X-5770000Y-660400D02*
X-5312800Y-1117600D01*
X-3556000Y-1117600D01*
X-3556000Y-609600D01*
X-3352800Y-406400D01*
X-2976000Y-406400D01*
X-2468000Y+101600D01*
X-4876800Y+3048000D02*
X-5791200Y+3048000D01*
X-3886200Y+5867400D02*
X-8001000Y+5867400D01*
X+1752600Y+3352800D02*
X+783200Y+3352800D01*
X+580000Y+3149600D01*
X-2976000Y+5689600D02*
X-2671200Y+5384800D01*
X+1727200Y+5384800D01*
X+1752600Y+5410200D01*
X-6324600Y-1676400D02*
X-6299200Y-1701800D01*
X-4572000Y-1701800D01*
X-4394200Y-1524000D01*
X-3505200Y-1524000D01*
X-6781800Y+304800D02*
X-7239000Y+304800D01*
X-7239000Y-152400D01*
X-7391400Y+1600200D02*
X-6786000Y+1600200D01*
X-6786000Y+1879600D01*
X+2104000Y-4470400D02*
X+2916800Y-5283200D01*
X+6197600Y-5283200D01*
X+6400800Y-5080000D01*
X+6400800Y-4064000D01*
X+6350000Y-4064000D01*
X+6324600Y-4038600D01*
X-3230000Y+2133600D02*
X-3657600Y+2133600D01*
X-3860800Y+1930400D01*
X-3860800Y+1625600D01*
X-5080000Y+1625600D01*
X-5283200Y+1422400D01*
X-5283200Y+588400D01*
X-5770000Y+101600D01*
X-203200Y-812800D02*
X-203200Y-914400D01*
X-534482Y-1828882D02*
X-534482Y-1245682D01*
X-203200Y-914400D01*
X+326000Y-914400D01*
X+580000Y-1168400D01*
X+1447800Y-3276600D02*
X+228600Y-3276600D01*
X-203200Y-812800D02*
X-203200Y-681600D01*
X-182000Y-660400D01*
X+4390000Y+1879600D02*
X+3120000Y+1879600D01*
X+1850000Y+1879600D01*
X+72000Y+3149600D02*
X-182000Y+3149600D01*
D11*
X-534482Y-1828882D02*
X-1034482Y-1828882D01*
X-3500000Y-1810400D02*
X-4000000Y-1810400D01*
X-3000000Y-1810400D02*
X-3500000Y-1810400D01*
X-2500000Y-1810400D02*
X-3000000Y-1810400D01*
X-2000000Y-1810400D02*
X-2500000Y-1810400D01*
X-1500000Y-1810400D02*
X-2000000Y-1810400D01*
X-1034482Y-1828882D02*
X-1500000Y-1828882D01*
X-1500000Y-1810400D01*
D10*
X-4648200Y+3886200D02*
X-4673600Y+3860800D01*
X-5461000Y+3860800D01*
X-5486400Y+3886200D01*
X-4495800Y+1219200D02*
X-4775200Y+939800D01*
X-4775200Y-131200D01*
X-4500000Y-406400D01*
X-4419600Y+4876800D02*
X-639200Y+4876800D01*
X+326000Y+3911600D01*
X-4038600Y+1828800D02*
X-4038600Y+2470150D01*
X-8636000Y+2470150D01*
X-8839200Y+2673350D01*
X-8839200Y+6502400D01*
X-8636000Y+6705600D01*
X-304800Y+6705600D01*
X+76200Y+6324600D01*
X+834000Y+3911600D02*
X+1088000Y+4165600D01*
X+4470400Y+4165600D01*
X+4673600Y+3962400D01*
X+4673600Y+1320800D01*
X-1219200Y+1320800D01*
X-1524000Y+1016000D01*
X-3352800Y+1016000D01*
X-3556000Y+812800D01*
X-3556000Y+29600D01*
X-3738000Y-152400D01*
X+1088000Y+3911600D02*
X+2743200Y+3911600D01*
X+2946400Y+3708400D01*
X+2946400Y+2133600D01*
X+1828800Y+2133600D01*
X+1193800Y+1498600D01*
X-1625600Y+1498600D01*
X-1905000Y+1219200D01*
X-3860800Y+1219200D01*
X-4064000Y+1016000D01*
X-4064000Y-334400D01*
X-3738000Y-660400D01*
X-436000Y+3911600D02*
X-690000Y+4165600D01*
X-2468000Y+4165600D01*
X-2722000Y+4419600D01*
X-2214000Y+4419600D02*
X-1960000Y+4673600D01*
X-944000Y+4673600D01*
X-182000Y+3911600D01*
X-2209800Y-2362200D02*
X-6781800Y-2362200D01*
X-2976000Y+3911600D02*
X-2976000Y+4165600D01*
X-3352800Y+4165600D01*
X-3556000Y+3962400D01*
X-3556000Y+3048000D01*
X-2844800Y+2336800D01*
X-1655200Y+2336800D01*
X-1452000Y+2133600D01*
X+3048000Y-1371600D02*
X+2997200Y-1422400D01*
X+1850000Y-1422400D01*
X-914400Y+1066800D02*
X-863600Y+1117600D01*
X+2717800Y+1117600D01*
X+2743200Y+1143000D01*
X-3429000Y+1828800D02*
X-1502800Y+1828800D01*
X-1198000Y+2133600D01*
X+76200Y+914400D02*
X+304800Y+914400D01*
X+304800Y+334400D01*
X+72000Y+101600D01*
X-457200Y+1752600D02*
X-431800Y+1727200D01*
X+279400Y+1727200D01*
X+304800Y+1752600D01*
X+2209800Y+2971800D02*
X+2209800Y+3733800D01*
X-1528200Y+3733800D01*
X-1706000Y+3911600D01*
X-685800Y+2971800D02*
X+609600Y+2971800D01*
X+5867400Y-4114800D02*
X+1850000Y-4114800D01*
X+1850000Y-4470400D01*
X+2743200Y+1524000D02*
X+4495800Y+1524000D01*
X+1219200Y+2133600D02*
X+1422400Y+2336800D01*
X+2717800Y+2336800D01*
X+2743200Y+2362200D01*
X-914400Y+1752600D02*
X-736600Y+1930400D01*
X+203200Y+1930400D01*
X+406400Y+2133600D01*
X+838200Y+2133600D01*
X-3250000Y-4560400D02*
X-3058400Y-4368800D01*
X+711200Y-4368800D01*
X+914400Y-4572000D01*
X+914400Y-5080000D01*
X+711200Y-5283200D01*
X-2133600Y-5283200D01*
X-2336800Y-5486400D01*
X-2336800Y-5689600D01*
X+7213600Y-5689600D01*
X+7416800Y-5486400D01*
X+7416800Y+5384800D01*
X+7162800Y+5638800D01*
X-1219200Y+5638800D01*
X-1143000Y+5181600D02*
X+7239000Y+5181600D01*
D11*
X-3000000Y-2826400D02*
X-3000000Y-2844882D01*
X-2829200Y-3015682D01*
X+1272718Y-3015682D01*
X+1291200Y-2997200D01*
D10*
X-8458200Y+4038600D02*
X-8432800Y+4064000D01*
X-3759200Y+4064000D01*
X-3759200Y+4165600D01*
X-3733800Y+4191000D01*
X-7848600Y+2819400D02*
X-4064000Y+2819400D01*
X-3683000Y+2438400D01*
X-3276600Y+2438400D01*
X-5257800Y-2971800D02*
X-7620000Y-2971800D01*
X-7823200Y-2768600D01*
X-7823200Y+812800D01*
X-7848600Y+812800D01*
X-7848600Y+838200D01*
X-5257800Y-2743200D02*
X-4876800Y-2743200D01*
X-4793600Y-2826400D01*
X-4000000Y-2826400D01*
X-2057400Y+2971800D02*
X-1016000Y+2971800D01*
X-787400Y+2743200D01*
X+1828800Y+2743200D01*
X-1219200Y+2362200D02*
X+1016000Y+2362200D01*
X+1016000Y+1701800D01*
X+990600Y+1676400D01*
X-2286000Y+2743200D02*
X-1219200Y+2743200D01*
X+3657600Y-533400D02*
X+3613150Y-488950D01*
X+497450Y-488950D01*
X+326000Y-660400D01*
X+2133600Y+0D02*
X+3657600Y+0D01*
X+2133600Y+2514600D02*
X+2108200Y+2540000D01*
X-2468000Y+2540000D01*
X-2468000Y+3149600D01*
X-8610600Y-3657600D02*
X-8052800Y-3657600D01*
X-7840000Y-3870400D01*
X-4038600Y+4267200D02*
X-8458200Y+4267200D01*
X-3352800Y+3657600D02*
X-2722000Y+3657600D01*
X-2214000Y+3149600D01*
X+5410200Y+76200D02*
X+5410200Y+3352800D01*
X+5207000Y+3556000D01*
X+4876800Y+3556000D01*
X+4876800Y+711200D01*
X+4673600Y+508000D01*
X+1092200Y+508000D01*
X+1066800Y+533400D01*
X-838200Y-1600200D02*
X-914400Y-1524000D01*
X-914400Y-76200D01*
X+4876800Y-304800D02*
X+224400Y-304800D01*
X-182000Y+101600D01*
X+6629400Y-838200D02*
X+5384800Y-838200D01*
X+5384800Y-495300D01*
X+5410200Y-469900D01*
X+5410200Y-457200D01*
X-2743200Y-4114800D02*
X-2209800Y-4114800D01*
X-2250000Y-3276600D02*
X-2743200Y-3276600D01*
X+2819400Y-2971800D02*
X+4673600Y-2971800D01*
X+4876800Y-2768600D01*
X+4876800Y-1905000D01*
X+1295400Y-1676400D02*
X+1295400Y-2209800D01*
X+1143000Y-2362200D01*
X+1524000Y-1625600D02*
X+1320800Y-1422400D01*
X+1088000Y-1422400D01*
X+3120000Y-1930400D02*
X+2916800Y-1727200D01*
X+2438400Y-1727200D01*
X+1930400Y-2235200D01*
X+1727200Y-2235200D01*
X+1524000Y-2032000D01*
X+1524000Y-1625600D01*
X+1574800Y-1676400D01*
X+1850000Y-1676400D01*
X+3120000Y-1930400D02*
X+4644000Y-1930400D01*
X+5486400Y-5029200D02*
X+5660000Y-4855600D01*
X+5660000Y-4470400D01*
X+2819400Y+304800D02*
X+812800Y+304800D01*
X+580000Y+537600D01*
X+580000Y+863600D01*
X-7040000Y+1879600D02*
X-7823200Y+1879600D01*
X-8026400Y+1676400D01*
X-8026400Y-2946400D01*
X-7823200Y-3149600D01*
X-4064000Y-3149600D01*
X-3759200Y-3454400D01*
X+1625600Y-3454400D01*
X+1625600Y-3149600D01*
X+1828800Y-2946400D01*
X+2104000Y-2946400D01*
X+2358000Y-3200400D01*
X+2133600Y-3429000D02*
X+3886200Y-3429000D01*
X+3886200Y+685800D02*
X+3454400Y+1117600D01*
X+2997200Y+1117600D01*
X+2743200Y+863600D01*
X+1850000Y+863600D01*
X+4495800Y-2438400D02*
X+2612000Y-2438400D01*
X-182000Y-1422400D02*
X+0Y-1604400D01*
X+0Y-2133600D01*
X+1676400Y-3657600D02*
X+0Y-3657600D01*
X+4267200Y-3657600D02*
X+2057400Y-3657600D01*
X+580000Y-1422400D02*
X+203200Y-1799200D01*
X+203200Y-2336800D01*
X+0Y-2540000D01*
X-7112000Y-2540000D01*
X-7315200Y-2336800D01*
X-7315200Y-1727200D01*
X-7416800Y-1625600D01*
X-7416800Y+406400D01*
X-7213600Y+609600D01*
X-7040000Y+609600D01*
X+3352800Y-914400D02*
X+1016000Y-914400D01*
X+812800Y-1117600D01*
X+812800Y-1443600D01*
X+580000Y-1676400D01*
X+4038600Y-2743200D02*
X+381000Y-2743200D01*
X-4267200Y+2057400D02*
X-8026400Y+2057400D01*
X-8229600Y+1854200D01*
X-8229600Y-3149600D01*
X-8026400Y-3352800D01*
X-7010400Y-3352800D01*
X-4267200Y-3352800D02*
X-5080000Y-3352800D01*
X-5434050Y-3706850D01*
X-6024000Y-3706850D01*
X-6024000Y-3454400D01*
X-5486400Y-2133600D02*
X-3810000Y-2133600D01*
X-4267200Y+4648200D02*
X-2696600Y+4648200D01*
X-2468000Y+4419600D01*
X-8229600Y+3352800D02*
X-4267200Y+3352800D01*
X-8839200Y-4114800D02*
X-8813800Y-4089400D01*
X-8255000Y-4089400D01*
X-8229600Y-4114800D01*
X-3429000Y+4419600D02*
X-3479800Y+4470400D01*
X-8432800Y+4470400D01*
X-8432800Y+4546600D01*
X-8458200Y+4572000D01*
X-4500000Y-914400D02*
X-4267200Y-681600D01*
X-4267200Y+1219200D01*
X-4038600Y+1447800D01*
X-3886200Y+1447800D01*
X-1706000Y+5689600D02*
X-1528200Y+5867400D01*
X+2057400Y+5867400D01*
X-4500000Y-914400D02*
X-4673600Y-914400D01*
X+1088000Y+3149600D02*
X+1930400Y+3149600D01*
X+1930400Y+3556000D01*
X-1045600Y+3556000D01*
X-1452000Y+3149600D01*
X-3276600Y-914400D02*
X-1706000Y-914400D01*
X-1452000Y-660400D01*
X-4267200Y+2286000D02*
X-5562600Y+2286000D01*
X-4673600Y-914400D02*
X-5008000Y-914400D01*
X-5262000Y-660400D01*
X-3886200Y+1447800D02*
X-3276600Y+1447800D01*
X-3276600Y+838200D02*
X-3251200Y+838200D01*
X-3251200Y+812800D01*
X-385200Y+812800D01*
X-182000Y+609600D01*
X-3962400Y+3352800D02*
X-3962400Y+3657600D01*
X-3733800Y+3886200D01*
X-3230000Y+6451600D02*
X-3657600Y+6024000D01*
X-3657600Y+5410200D01*
X-3429000Y+5181600D01*
X-7315200Y+3581400D02*
X-8432800Y+3581400D01*
X-8636000Y+3784600D01*
X-8636000Y+4978400D01*
X-8432800Y+5181600D01*
X-3429000Y+5181600D01*
X-3230000Y+101600D02*
X-3026800Y+304800D01*
X-1219200Y+304800D01*
X-1219200Y+76200D01*
X-690000Y+101600D02*
X-690000Y+609600D01*
X-3962400Y+3352800D02*
X-4191000Y+3581400D01*
X-7315200Y+3581400D01*
D12*
X-3250000Y-5068400D02*
X-5000000Y-5068400D01*
D13*
X-3250000Y-5068400D02*
X-2250000Y-5068400D01*
D12*
X-1500000Y-5068400D01*
D13*
X-500000Y-5068400D01*
D12*
X-500000Y-5076400D01*
X-258000Y-5076400D01*
X-250000Y-5068400D01*
D10*
X-1981200Y-3657600D02*
X-1295400Y-3657600D01*
D14*
X+3657600Y-2133600D03*
X-7086600Y-2209800D03*
X+5152000Y-711200D03*
X-1981200Y-1295400D03*
X-6096000Y-990600D03*
X+2438400Y+3429000D03*
X-1981200Y-5486400D03*
X-4648200Y-1524000D03*
X-4648200Y-3657600D03*
X+1219200Y+6096000D03*
X-1295400Y-3657600D03*
X-1219200Y-1600200D03*
X-1981200Y-3657600D03*
X+1219200Y+4775200D03*
X-5791200Y+3048000D03*
X-4876800Y+3048000D03*
X-8001000Y+5867400D03*
X-3886200Y+5867400D03*
X+1752600Y+3352800D03*
X+1752600Y+5410200D03*
X-3505200Y-1524000D03*
X-6324600Y-1676400D03*
X-7239000Y-152400D03*
X-6781800Y+304800D03*
X-7391400Y+1600200D03*
X+6324600Y-4038600D03*
X+228600Y-3276600D03*
X+1447800Y-3276600D03*
X-5486400Y+3886200D03*
X-4648200Y+3886200D03*
X-4495800Y+1219200D03*
X-4419600Y+4876800D03*
X+76200Y+6324600D03*
X-4038600Y+1828800D03*
X-6781800Y-2362200D03*
X-2209800Y-2362200D03*
X+3048000Y-1371600D03*
X+2743200Y+1143000D03*
X-914400Y+1066800D03*
X-3429000Y+1828800D03*
X+76200Y+914400D03*
X+304800Y+1752600D03*
X-457200Y+1752600D03*
X+2209800Y+2971800D03*
X+609600Y+2971800D03*
X-685800Y+2971800D03*
X+5867400Y-4114800D03*
X+4495800Y+1524000D03*
X+2743200Y+1524000D03*
X+2743200Y+2362200D03*
X+1219200Y+2133600D03*
X+838200Y+2133600D03*
X-914400Y+1752600D03*
X-1219200Y+5638800D03*
X+7239000Y+5181600D03*
X-1143000Y+5181600D03*
X-3733800Y+4191000D03*
X-8458200Y+4038600D03*
X-3276600Y+2438400D03*
X-7848600Y+2819400D03*
X-7848600Y+838200D03*
X-5257800Y-2971800D03*
X-5257800Y-2743200D03*
X+1828800Y+2743200D03*
X-2057400Y+2971800D03*
X+990600Y+1676400D03*
X-1219200Y+2362200D03*
X-1219200Y+2743200D03*
X-2286000Y+2743200D03*
X+3657600Y-533400D03*
X+3657600Y+0D03*
X+2133600Y+0D03*
X+2133600Y+2514600D03*
X-8610600Y-3657600D03*
X-8458200Y+4267200D03*
X-4038600Y+4267200D03*
X-3352800Y+3657600D03*
X+1066800Y+533400D03*
X+5410200Y+76200D03*
X-914400Y-76200D03*
X-838200Y-1600200D03*
X+4876800Y-304800D03*
X+5410200Y-457200D03*
X+6629400Y-838200D03*
X-2209800Y-4114800D03*
X-2743200Y-4114800D03*
X-2743200Y-3276600D03*
X-2250000Y-3276600D03*
X+4876800Y-1905000D03*
X+2819400Y-2971800D03*
X+1143000Y-2362200D03*
X+1295400Y-1676400D03*
X+5486400Y-5029200D03*
X+2819400Y+304800D03*
X+3886200Y-3429000D03*
X+2133600Y-3429000D03*
X+3886200Y+685800D03*
X+4495800Y-2438400D03*
X+0Y-2133600D03*
X+0Y-3657600D03*
X+1676400Y-3657600D03*
X+2057400Y-3657600D03*
X+4267200Y-3657600D03*
X+3352800Y-914400D03*
X+381000Y-2743200D03*
X+4038600Y-2743200D03*
X-7010400Y-3352800D03*
X-4267200Y+2057400D03*
X-4267200Y-3352800D03*
X-3810000Y-2133600D03*
X-5486400Y-2133600D03*
X-4267200Y+4648200D03*
X-4267200Y+3352800D03*
X-8229600Y+3352800D03*
X-8229600Y-4114800D03*
X-8839200Y-4114800D03*
X-8458200Y+4572000D03*
X-3429000Y+4419600D03*
X+2057400Y+5867400D03*
X-3276600Y-914400D03*
X-5562600Y+2286000D03*
X-4267200Y+2286000D03*
X-3276600Y+1447800D03*
X-3276600Y+838200D03*
X-3886200Y+1447800D03*
X-3733800Y+3886200D03*
X-1219200Y+76200D03*
X-3429000Y+5181600D03*
X-7315200Y+3581400D03*
X-3962400Y+3352800D03*
D15*
X-534482Y-1828882D03*
X-534482Y-2844882D03*
X-1034482Y-1828882D03*
X-1034482Y-2844882D03*
X-1500000Y-1810400D03*
X-1500000Y-2826400D03*
X-2000000Y-1810400D03*
X-2000000Y-2826400D03*
X-2500000Y-1810400D03*
X-2500000Y-2826400D03*
X-3000000Y-1810400D03*
X-3000000Y-2826400D03*
X-3500000Y-1810400D03*
X-3500000Y-2826400D03*
X-4000000Y-1810400D03*
X-4000000Y-2826400D03*
X+500000Y-4560400D03*
X+500000Y-4810400D03*
X-500000Y-4560400D03*
X-500000Y-4810400D03*
X-1500000Y-4560400D03*
X-1500000Y-4810400D03*
X-2250000Y-4560400D03*
X-2250000Y-4810400D03*
X-3250000Y-4560400D03*
X-3250000Y-4810400D03*
X-4000000Y-4560400D03*
X-4000000Y-4810400D03*
X-5000000Y-4560400D03*
X-5000000Y-4810400D03*
X-6000000Y-4560400D03*
X-6000000Y-4810400D03*
D16*
X-3230000Y+609600D03*
D17*
X-2976000Y+609600D03*
X-2722000Y+609600D03*
X-2468000Y+609600D03*
X-2214000Y+609600D03*
X-1960000Y+609600D03*
X-1706000Y+609600D03*
X-1452000Y+609600D03*
X-1198000Y+609600D03*
X-944000Y+609600D03*
X-690000Y+609600D03*
X-436000Y+609600D03*
X-182000Y+609600D03*
X+72000Y+609600D03*
X+72000Y+2133600D03*
X-182000Y+2133600D03*
X-436000Y+2133600D03*
X-690000Y+2133600D03*
X-944000Y+2133600D03*
X-1198000Y+2133600D03*
X-1452000Y+2133600D03*
X-1706000Y+2133600D03*
X-1960000Y+2133600D03*
X-2214000Y+2133600D03*
X-2468000Y+2133600D03*
X-2722000Y+2133600D03*
X-2976000Y+2133600D03*
X-3230000Y+2133600D03*
D18*
X-6532000Y-3454400D03*
X-6786000Y-3454400D03*
X-6532000Y-1930400D03*
X-6278000Y-3454400D03*
X-6278000Y-1930400D03*
X-6024000Y-1930400D03*
X-6786000Y-1930400D03*
X-5770000Y-1930400D03*
X-5770000Y-3454400D03*
X-6024000Y-3454400D03*
D16*
X-3230000Y-660400D03*
D17*
X-2976000Y-660400D03*
X-2722000Y-660400D03*
X-2468000Y-660400D03*
X-2214000Y-660400D03*
X-1960000Y-660400D03*
X-1706000Y-660400D03*
X-1452000Y-660400D03*
X-1452000Y+101600D03*
X-1706000Y+101600D03*
X-1960000Y+101600D03*
X-2214000Y+101600D03*
X-2468000Y+101600D03*
X-2722000Y+101600D03*
X-2976000Y+101600D03*
X-3230000Y+101600D03*
D16*
X-3230000Y+3149600D03*
D17*
X-2976000Y+3149600D03*
X-2722000Y+3149600D03*
X-2468000Y+3149600D03*
X-2214000Y+3149600D03*
X-1960000Y+3149600D03*
X-1706000Y+3149600D03*
X-1452000Y+3149600D03*
X-1452000Y+3911600D03*
X-1706000Y+3911600D03*
X-1960000Y+3911600D03*
X-2214000Y+3911600D03*
X-2468000Y+3911600D03*
X-2722000Y+3911600D03*
X-2976000Y+3911600D03*
X-3230000Y+3911600D03*
D16*
X-690000Y-660400D03*
D17*
X-436000Y-660400D03*
X-182000Y-660400D03*
X+72000Y-660400D03*
X+326000Y-660400D03*
X+580000Y-660400D03*
X+834000Y-660400D03*
X+1088000Y-660400D03*
X+1088000Y+101600D03*
X+834000Y+101600D03*
X+580000Y+101600D03*
X+326000Y+101600D03*
X+72000Y+101600D03*
X-182000Y+101600D03*
X-436000Y+101600D03*
X-690000Y+101600D03*
D16*
X-690000Y+3149600D03*
D17*
X-436000Y+3149600D03*
X-182000Y+3149600D03*
X+72000Y+3149600D03*
X+326000Y+3149600D03*
X+580000Y+3149600D03*
X+834000Y+3149600D03*
X+1088000Y+3149600D03*
X+1088000Y+3911600D03*
X+834000Y+3911600D03*
X+580000Y+3911600D03*
X+326000Y+3911600D03*
X+72000Y+3911600D03*
X-182000Y+3911600D03*
X-436000Y+3911600D03*
X-690000Y+3911600D03*
D16*
X-4500000Y+609600D03*
D17*
X-4500000Y+355600D03*
X-4500000Y+101600D03*
X-4500000Y-152400D03*
X-4500000Y-406400D03*
X-4500000Y-660400D03*
X-4500000Y-914400D03*
X-3738000Y-914400D03*
X-3738000Y-660400D03*
X-3738000Y-406400D03*
X-3738000Y-152400D03*
X-3738000Y+101600D03*
X-3738000Y+355600D03*
X-3738000Y+609600D03*
D16*
X-3230000Y+4419600D03*
D17*
X-2976000Y+4419600D03*
X-2722000Y+4419600D03*
X-2468000Y+4419600D03*
X-2214000Y+4419600D03*
X-1960000Y+4419600D03*
X-1706000Y+4419600D03*
X-1706000Y+5181600D03*
X-1960000Y+5181600D03*
X-2214000Y+5181600D03*
X-2468000Y+5181600D03*
X-2722000Y+5181600D03*
X-2976000Y+5181600D03*
X-3230000Y+5181600D03*
D16*
X-7040000Y-660400D03*
D17*
X-6786000Y-660400D03*
X-6532000Y-660400D03*
X-6278000Y-660400D03*
X-6024000Y-660400D03*
X-5770000Y-660400D03*
X-5516000Y-660400D03*
X-5262000Y-660400D03*
X-5262000Y+101600D03*
X-5516000Y+101600D03*
X-5770000Y+101600D03*
X-6024000Y+101600D03*
X-6278000Y+101600D03*
X-6532000Y+101600D03*
X-6786000Y+101600D03*
X-7040000Y+101600D03*
D16*
X-3230000Y+5689600D03*
D17*
X-2976000Y+5689600D03*
X-2722000Y+5689600D03*
X-2468000Y+5689600D03*
X-2214000Y+5689600D03*
X-1960000Y+5689600D03*
X-1706000Y+5689600D03*
X-1706000Y+6451600D03*
X-1960000Y+6451600D03*
X-2214000Y+6451600D03*
X-2468000Y+6451600D03*
X-2722000Y+6451600D03*
X-2976000Y+6451600D03*
X-3230000Y+6451600D03*
D16*
X-7040000Y+609600D03*
D17*
X-6786000Y+609600D03*
X-6532000Y+609600D03*
X-6278000Y+609600D03*
X-6024000Y+609600D03*
X-5770000Y+609600D03*
X-5516000Y+609600D03*
X-5516000Y+1371600D03*
X-5770000Y+1371600D03*
X-6024000Y+1371600D03*
X-6278000Y+1371600D03*
X-6532000Y+1371600D03*
X-6786000Y+1371600D03*
X-7040000Y+1371600D03*
D16*
X-7040000Y+1879600D03*
D17*
X-6786000Y+1879600D03*
X-6532000Y+1879600D03*
X-6278000Y+1879600D03*
X-6024000Y+1879600D03*
X-5770000Y+1879600D03*
X-5516000Y+1879600D03*
X-5516000Y+2641600D03*
X-5770000Y+2641600D03*
X-6024000Y+2641600D03*
X-6278000Y+2641600D03*
X-6532000Y+2641600D03*
X-6786000Y+2641600D03*
X-7040000Y+2641600D03*
D19*
X+3080000Y-4450400D03*
X+3080000Y-4958400D03*
X+4390000Y-4470400D03*
X+4390000Y-4978400D03*
D70*
X+2104000Y-4470400D03*
X+1850000Y-4470400D03*
X+1596000Y-4470400D03*
D16*
X+580000Y-1930400D03*
D17*
X+580000Y-1676400D03*
X+580000Y-1422400D03*
X+580000Y-1168400D03*
X-182000Y-1168400D03*
X-182000Y-1422400D03*
X-182000Y-1676400D03*
X-182000Y-1930400D03*
D16*
X+1850000Y-3200400D03*
D17*
X+2104000Y-3200400D03*
X+2358000Y-3200400D03*
X+2612000Y-3200400D03*
X+2612000Y-2438400D03*
X+2358000Y-2438400D03*
X+2104000Y-2438400D03*
X+1850000Y-2438400D03*
D16*
X+1850000Y-1930400D03*
D17*
X+1850000Y-1676400D03*
X+1850000Y-1422400D03*
X+1850000Y-1168400D03*
X+1088000Y-1168400D03*
X+1088000Y-1422400D03*
X+1088000Y-1676400D03*
X+1088000Y-1930400D03*
D71*
X-7540000Y-2470400D03*
X-7540000Y-2216400D03*
X-7840000Y-3870400D03*
X-7586000Y-3870400D03*
D15*
X+4390000Y+1879600D03*
X+4390000Y+863600D03*
X+3120000Y+1879600D03*
X+3120000Y+863600D03*
X+1850000Y+1879600D03*
X+1850000Y+863600D03*
X+580000Y+1879600D03*
X+580000Y+863600D03*
X+5660000Y+609600D03*
X+5660000Y-406400D03*
X+5660000Y-1930400D03*
X+4644000Y-1930400D03*
X+4390000Y-660400D03*
X+4898000Y-660400D03*
X+5660000Y+3149600D03*
X+5152000Y+3149600D03*
X+5660000Y-3200400D03*
X+5152000Y-3200400D03*
X+3120000Y-3200400D03*
X+3628000Y-3200400D03*
X+5660000Y-4470400D03*
X+6168000Y-4470400D03*
X+3120000Y-1930400D03*
X+2612000Y-1930400D03*
D70*
X+7000000Y-1310400D03*
X+6930000Y-660400D03*
D20*
X-4000000Y-4750000D03*
D21*
X-9000000Y-6310400D02*
X+7750000Y-6310400D01*
X+7750000Y+7439600D01*
X-9000000Y+7439600D01*
X-9000000Y-6310400D01*
M02*
